<svg width="22.000000" height="22.000000" viewBox="0 0 22 22" fill="none" xmlns="http://www.w3.org/2000/svg" xmlns:xlink="http://www.w3.org/1999/xlink">
	<desc>
			Created with Pixso.
	</desc>
	<defs/>
	<rect id="icon" width="22.000000" height="22.000000" fill="#FFFFFF" fill-opacity="0"/>
	<path id="icon" d="M19 0C20.65 0 22 1.34 22 3L22 19C22 20.65 20.65 22 19 22L3 22C1.34 22 0 20.65 0 19L0 3C0 1.34 1.34 0 3 0L19 0ZM19 2C19.55 2 20 2.44 20 3L20 19C20 19.55 19.55 20 19 20L14 20L14 13L16.07 13C16.5 13 16.88 12.72 17.02 12.31L17.46 10.98C17.62 10.5 17.26 10 16.75 10L14 10L14 8C14 7.5 14.5 7 15 7L17 7C17.55 7 18 6.55 18 6L18 5.31C18 4.99 17.79 4.7 17.48 4.61C16.17 4.27 15 4.27 15 4.27C12.5 4.27 11 6 11 7.5L11 10L9 10C8.44 10 8 10.44 8 11L8 12C8 12.55 8.44 13 9 13L11 13L11 20L3 20C2.44 20 2 19.55 2 19L2 3C2 2.44 2.44 2 3 2L19 2Z" fill="#151618" fill-opacity="1.000000" fill-rule="evenodd"/>
</svg>
