<svg width="22.000000" height="22.000000" viewBox="0 0 22 22" fill="none" xmlns="http://www.w3.org/2000/svg" xmlns:xlink="http://www.w3.org/1999/xlink">
	<desc>
			Created with Pixso.
	</desc>
	<defs/>
	<rect id="icon" width="22.000000" height="22.000000" fill="#FFFFFF" fill-opacity="0"/>
	<path id="icon" d="M0 9.6C0 6.23 0 4.55 0.65 3.27C1.22 2.14 2.14 1.22 3.27 0.65C4.55 0 6.23 0 9.6 0L12.39 0C15.76 0 17.44 0 18.72 0.65C19.85 1.22 20.77 2.14 21.34 3.27C22 4.55 22 6.23 22 9.6L22 12.39C22 15.76 22 17.44 21.34 18.72C20.77 19.85 19.85 20.77 18.72 21.34C17.44 22 15.76 22 12.39 22L9.6 22C6.23 22 4.55 22 3.27 21.34C2.14 20.77 1.22 19.85 0.65 18.72C0 17.44 0 15.76 0 12.39L0 9.6ZM9.6 2L12.39 2C14.11 2 15.27 2 16.17 2.07C17.05 2.14 17.5 2.27 17.81 2.43C18.56 2.81 19.18 3.43 19.56 4.18C19.72 4.49 19.85 4.94 19.92 5.82C19.99 6.72 20 7.88 20 9.6L20 12.39C20 14.11 19.99 15.27 19.92 16.17C19.85 17.05 19.72 17.5 19.56 17.81C19.18 18.56 18.56 19.18 17.81 19.56C17.5 19.72 17.05 19.85 16.17 19.92C15.27 19.99 14.11 20 12.39 20L9.6 20C7.88 20 6.72 19.99 5.82 19.92C4.94 19.85 4.49 19.72 4.18 19.56C3.43 19.18 2.81 18.56 2.43 17.81C2.27 17.5 2.14 17.05 2.07 16.17C2 15.27 2 14.11 2 12.39L2 9.6C2 7.88 2 6.72 2.07 5.82C2.14 4.94 2.27 4.49 2.43 4.18C2.81 3.43 3.43 2.81 4.18 2.43C4.49 2.27 4.94 2.14 5.82 2.07C6.72 2 7.88 2 9.6 2ZM17 4C16.44 4 16 4.44 16 5C16 5.55 16.44 6 17 6C17.55 6 18 5.55 18 5C18 4.44 17.55 4 17 4ZM11 17C14.31 17 17 14.31 17 11C17 7.68 14.31 5 11 5C7.68 5 5 7.68 5 11C5 14.31 7.68 17 11 17ZM11 15C13.2 15 15 13.2 15 11C15 8.79 13.2 7 11 7C8.79 7 7 8.79 7 11C7 13.2 8.79 15 11 15Z" fill="#0F0F0F" fill-opacity="1.000000" fill-rule="evenodd"/>
</svg>
