<svg width="73.204224" height="105.000244" viewBox="0 0 73.2042 105" fill="none" xmlns="http://www.w3.org/2000/svg" xmlns:xlink="http://www.w3.org/1999/xlink">
	<desc>
			Created with Pixso.
	</desc>
	<defs/>
	<path d="M46.07 1.28C45.38 2.02 43.75 3.56 42.44 4.75C38.09 8.68 37.21 10.08 37.09 13.29C37 15.9 37.63 17.88 39.26 20.13C39.7 20.73 40.06 21.19 40.06 21.13C40.06 21.09 39.79 20.53 39.46 19.9C38.2 17.49 37.82 14.57 38.51 12.49C39.16 10.54 40.1 9.37 43.3 6.54C43.97 5.96 44.8 5.14 45.14 4.75L45.79 4.04L45.7 7.04C45.65 9.04 45.55 10.41 45.38 11.13C44.83 13.55 43.75 15.47 41.78 17.58C40.36 19.11 39.95 19.98 40.34 20.7C40.4 20.83 40.51 21.37 40.57 21.89L40.66 22.83L39.8 23.38C36.91 25.21 34.87 27.86 34.04 30.87C33.82 31.68 33.73 32.45 33.73 33.7C33.71 36.35 34.22 38.55 35.51 41.33L36.19 42.79L35.95 43.94C35.71 45.1 35.63 48.55 35.84 49.46C35.92 49.82 36.01 49.89 36.38 49.89L36.83 49.89L36.94 48.04C37.33 41.45 39.61 37.62 44.96 34.57C49.09 32.22 50.31 30.9 53.05 25.8C55.21 21.75 55.9 20.67 57.57 18.62L58.51 17.46L57.18 18.01C55.02 18.89 51.91 19.78 48.16 20.59C44.56 21.34 42.92 21.79 41.68 22.39C41.29 22.58 40.93 22.73 40.88 22.73C40.84 22.73 40.82 22.16 40.87 21.45C40.94 19.91 40.96 19.88 43.28 17.56C44.54 16.32 45.07 15.66 45.5 14.84C46.46 13.02 46.54 12.49 46.43 8.98C46.33 5.68 46.51 3.53 47.11 1.14C47.26 0.53 47.38 0.01 47.36 0C47.35 -0.02 46.76 0.57 46.07 1.28ZM52.99 23.75C49.98 29.05 47.87 31.3 43.06 34.41C42.11 35.03 41 35.8 40.6 36.12C39.11 37.29 37.42 39.61 36.77 41.35C36.62 41.76 36.46 42.05 36.41 41.98C36.17 41.62 35.53 38.7 35.38 37.34C34.88 32.82 36.64 28.87 40.33 26.22C42.44 24.68 44.36 23.98 48.23 23.31C49.89 23.02 52.51 22.29 53.64 21.82C53.89 21.72 54.1 21.65 54.13 21.66C54.15 21.67 53.64 22.62 52.99 23.75Z" fill="#151618" fill-opacity="1.000000" fill-rule="nonzero"/>
	<path d="M19.68 4.86C20.57 8.09 20.84 12.32 20.41 16.28C19.87 21.22 20.32 22.71 23.51 26.77C24.37 27.86 25.34 29.28 25.69 29.92C26.66 31.8 27.18 34.46 27.19 37.68L27.19 39.01L26.83 38.87C26 38.57 24.49 38.44 20.71 38.37C18.5 38.32 16.22 38.22 15.63 38.17C15.07 38.09 14.58 38.07 14.56 38.08C14.53 38.09 14.83 38.32 15.23 38.6C16.92 39.76 18.62 41.27 20.59 43.35C21.75 44.57 23.14 45.91 23.69 46.33C26.04 48.12 28.74 49.17 32.01 49.54C33.35 49.7 32.81 49.21 30.55 48.27C26.94 46.75 25.13 45.51 22.36 42.69C21.32 41.62 20.05 40.49 19.56 40.16L18.66 39.59L20.42 39.59C25.04 39.59 27.65 40.45 29.88 42.7C30.98 43.8 31.77 45.18 32.17 46.66C32.29 47.13 32.43 47.55 32.47 47.59C32.62 47.72 32.58 45.9 32.41 44.9C32.07 42.81 30.34 40.52 28.36 39.51L27.49 39.08L27.49 36.72C27.49 32.01 27.06 30.39 24.79 26.72C21.79 21.84 21.3 19.91 21.39 13.16C21.42 11.06 21.47 9.34 21.48 9.35C21.48 9.37 21.79 9.77 22.15 10.24C22.52 10.72 23.85 12.14 25.12 13.4C28.19 16.46 29.37 18.22 30.1 20.88C30.92 23.79 30.25 27.86 28.31 31.8C27.95 32.53 27.68 33.13 27.7 33.13C27.73 33.13 27.98 32.79 28.28 32.35C30.62 28.97 31.8 25.15 31.62 21.58C31.52 19.63 31.11 18.11 30.26 16.41C29.4 14.66 28.4 13.43 25.51 10.55C23.26 8.29 21.7 6.63 20.08 4.79L19.45 4.07L19.68 4.86Z" fill="#151618" fill-opacity="1.000000" fill-rule="nonzero"/>
	<path d="M46.57 40.03C43.14 40.73 40.81 43.64 40.8 47.21C40.8 47.92 40.77 47.98 40.33 48.12C39.55 48.38 40.12 48.5 42.54 48.6C46 48.75 48.12 48.36 49.92 47.25C50.41 46.95 51.66 45.99 52.7 45.12C54.8 43.38 55.88 42.64 57.66 41.74L58.84 41.14L57.4 41.04C56.62 41 55.22 40.82 54.29 40.66C53.36 40.5 51.89 40.25 51.01 40.1C49.18 39.79 47.86 39.76 46.57 40.03ZM51.53 41.81C52.26 41.99 53.4 42.17 54.03 42.21L55.21 42.31L53.57 43.57C51.07 45.48 49.42 46.35 47.3 46.86C46.22 47.13 41.38 47.83 41.28 47.73C41.14 47.6 41.58 46.28 42.11 45.24C43.02 43.43 44.75 42.13 46.93 41.6C48.04 41.33 49.78 41.41 51.53 41.81Z" fill="#151618" fill-opacity="1.000000" fill-rule="nonzero"/>
	<path d="M13.05 55.64C12.87 63.38 13.29 66.01 15.32 69.91C16.39 71.95 18.12 74.35 19.35 75.47C19.65 75.74 19.89 76 19.89 76.04C19.89 76.1 16.15 76.12 11.59 76.09C7.02 76.06 3.12 76.09 2.93 76.13C2.75 76.17 2.51 76.38 2.42 76.56C2.28 76.87 2.3 76.97 2.52 77.21C2.79 77.5 2.96 77.5 36.47 77.5C59.41 77.5 70.24 77.46 70.45 77.36C70.84 77.15 70.84 76.4 70.45 76.2C70.25 76.12 67.15 76.06 61.41 76.06L52.67 76.06L53.59 75.01C56.2 72.06 57.9 68.81 59.02 64.68C59.33 63.54 59.36 63.05 59.41 57.29L59.48 51.14L36.32 51.14L13.16 51.14L13.05 55.64Z" fill="#151618" fill-opacity="1.000000" fill-rule="nonzero"/>
	<path d="M6.81 79.45C11.89 81.74 19.73 83.61 27.03 84.27C28.33 84.4 28.91 84.5 28.69 84.56C28.37 84.64 28.36 84.65 28.61 84.67C28.78 84.68 29.8 84.75 30.87 84.84C36.37 85.22 48.16 84.99 47.83 84.5C47.78 84.43 47.8 84.4 47.89 84.44C47.96 84.48 48.23 84.47 48.47 84.4C48.9 84.29 48.9 84.29 48.31 84.26C47.95 84.24 48.71 84.07 50.19 83.83C54.77 83.1 58.55 82.21 61.65 81.13C63.42 80.51 66.86 79.1 67.1 78.87C67.18 78.8 55.44 78.74 36.28 78.76L5.31 78.77L6.81 79.45Z" fill="#151618" fill-opacity="1.000000" fill-rule="nonzero"/>
	<path d="M65.18 100.54Q65.25 100.53 65.28 100.53Q65.34 100.53 65.43 100.54Q65.53 100.54 65.62 100.54Q65.71 100.54 65.79 100.55Q65.86 100.55 65.88 100.55Q66.05 100.55 66.19 100.6Q66.33 100.64 66.48 100.64L66.53 100.64Q66.55 100.63 66.62 100.61Q66.69 100.6 66.77 100.58Q66.85 100.57 66.92 100.56Q66.99 100.55 67.02 100.55Q67.32 100.52 67.59 100.52Q67.86 100.52 68.17 100.41L68.27 100.41Q68.27 100.42 68.32 100.46L68.37 100.49Q68.38 100.49 68.43 100.5Q68.48 100.51 68.54 100.52L68.66 100.53Q68.73 100.54 68.75 100.55L68.8 100.55Q68.9 100.55 68.98 100.51Q69.02 100.48 69.05 100.45Q69.05 100.44 69.05 100.44Q69.15 100.34 69.2 100.2Q69.25 100.05 69.27 99.89Q69.29 99.73 69.3 99.62L69.3 98.59Q69.3 98.56 69.33 98.49Q69.36 98.42 69.36 98.39L69.36 98.32Q69.36 98.2 69.33 98.1Q69.3 98.01 69.3 97.89Q69.3 97.79 69.33 97.7Q69.33 97.69 69.33 97.68Q69.36 97.59 69.36 97.49L69.36 97.45L69.25 97.34Q69.18 97.27 69.15 97.26Q69.12 97.26 69.09 97.28Q69.08 97.3 69.05 97.31Q69.02 97.33 69.01 97.34Q69 97.36 68.91 97.43Q68.83 97.5 68.81 97.54Q68.8 97.55 68.78 97.61Q68.76 97.67 68.73 97.73Q68.7 97.8 68.67 97.85Q68.64 97.9 68.63 97.91Q68.62 97.92 68.58 97.97Q68.55 98.01 68.51 98.06Q68.46 98.1 68.42 98.14Q68.38 98.19 68.37 98.2Q68.37 98.21 68.35 98.29Q68.32 98.37 68.31 98.39Q68.31 98.41 68.25 98.49Q68.19 98.57 68.17 98.59Q68.16 98.61 68.12 98.71Q68.08 98.8 68.03 98.91Q67.98 99.02 67.93 99.12Q67.88 99.22 67.86 99.24Q67.81 99.32 67.75 99.42Q67.69 99.52 67.61 99.62Q67.53 99.71 67.44 99.78Q67.35 99.86 67.26 99.88L65.59 99.88Q65.58 99.88 65.53 99.9Q65.47 99.91 65.41 99.92Q65.34 99.94 65.29 99.95Q65.24 99.96 65.23 99.96L64.59 99.96Q64.48 99.96 64.37 99.95Q64.37 99.94 64.36 99.94Q64.26 99.93 64.16 99.88Q64.05 99.88 63.79 99.88Q63.53 99.87 63.24 99.87Q62.94 99.86 62.68 99.85Q62.42 99.84 62.32 99.84Q62.27 99.83 62.17 99.82Q62.08 99.8 61.98 99.8Q61.89 99.8 61.81 99.79Q61.74 99.78 61.73 99.76Q61.71 99.75 61.67 99.72Q61.62 99.68 61.58 99.64Q61.54 99.6 61.51 99.56Q61.47 99.52 61.47 99.51Q61.47 99.46 61.46 99.35Q61.46 99.23 61.46 99.2Q61.46 98.84 61.49 98.51Q61.53 98.19 61.53 97.84Q61.53 97.8 61.52 97.77Q61.51 97.73 61.47 97.66Q61.47 97.6 61.45 97.44Q61.44 97.27 61.43 97.09Q61.42 96.91 61.41 96.75Q61.4 96.6 61.4 96.53L61.4 96.41Q61.41 96.32 61.44 96.12Q61.47 95.92 61.51 95.71Q61.54 95.5 61.57 95.32Q61.6 95.14 61.61 95.08Q61.63 94.95 61.7 94.86Q61.76 94.78 61.86 94.73Q61.98 94.66 62.11 94.64Q62.2 94.62 62.29 94.62L62.38 94.62Q62.4 94.62 62.46 94.65Q62.52 94.69 62.53 94.72Q62.56 94.72 62.66 94.72Q62.75 94.73 62.85 94.74Q62.95 94.74 63.05 94.75Q63.14 94.76 63.19 94.76Q63.24 94.78 63.4 94.78L64.08 94.78Q64.23 94.78 64.3 94.76Q64.41 94.78 64.49 94.85Q64.54 94.89 64.58 94.95Q64.66 95.11 64.7 95.34Q64.73 95.58 64.73 95.85Q64.73 96.12 64.74 96.38Q64.76 96.64 64.82 96.86Q64.87 97.06 64.99 97.18Q65.01 97.19 65.03 97.2Q65.05 97.25 65.13 97.3Q65.21 97.34 65.23 97.34Q65.25 97.34 65.32 97.3Q65.39 97.25 65.4 97.2Q65.5 97.05 65.53 96.93Q65.56 96.81 65.56 96.66Q65.56 96.62 65.56 96.56Q65.55 96.5 65.55 96.43Q65.55 96.37 65.55 96.3Q65.54 96.24 65.54 96.2Q65.54 96.17 65.54 96.08Q65.53 95.99 65.51 95.88Q65.5 95.77 65.49 95.67Q65.48 95.58 65.48 95.55Q65.48 95.53 65.5 95.48Q65.51 95.44 65.52 95.38Q65.54 95.32 65.55 95.28L65.56 95.23Q65.57 95.21 65.59 95.12Q65.61 95.04 65.61 94.97Q65.61 94.82 65.6 94.68Q65.59 94.53 65.59 94.51Q65.6 94.45 65.61 94.29Q65.62 94.12 65.64 93.89Q65.66 93.67 65.68 93.42Q65.69 93.17 65.71 92.95Q65.73 92.73 65.74 92.56Q65.75 92.4 65.75 92.34Q65.75 92.32 65.75 92.26Q65.74 92.2 65.74 92.13Q65.74 92.09 65.75 92.05Q65.75 92.02 65.75 92.01Q65.78 91.91 65.79 91.88Q65.8 91.85 65.8 91.78Q65.8 91.58 65.74 91.49Q65.68 91.4 65.48 91.4Q65.31 91.4 65.23 91.47Q65.21 91.49 65.2 91.5Q65.14 91.56 65.11 91.65Q65.08 91.76 65.07 91.89Q65.06 92.03 65.03 92.14Q65.02 92.15 64.99 92.18Q64.97 92.22 64.95 92.26Q64.92 92.3 64.9 92.34Q64.88 92.38 64.88 92.39Q64.86 92.41 64.84 92.51Q64.82 92.62 64.81 92.73Q64.79 92.84 64.77 92.94Q64.76 93.05 64.75 93.07Q64.69 93.22 64.63 93.45Q64.57 93.67 64.44 93.78Q64.37 93.78 64.22 93.79Q64.06 93.8 63.88 93.81Q63.7 93.81 63.54 93.82Q63.37 93.83 63.31 93.83L62.53 93.83Q62.52 93.83 62.46 93.84Q62.41 93.85 62.34 93.87Q62.27 93.88 62.2 93.89Q62.14 93.91 62.12 93.91L61.68 93.91Q61.64 93.91 61.6 93.86Q61.55 93.81 61.53 93.78L61.53 93.72Q61.53 93.41 61.57 93.12Q61.61 92.83 61.61 92.55Q61.61 92.14 61.57 91.74Q61.53 91.34 61.53 90.95Q61.53 90.82 61.54 90.7Q61.56 90.56 61.6 90.43Q61.67 90.17 61.68 89.89L61.68 88.8Q61.68 88.78 61.72 88.76Q61.76 88.74 61.8 88.74L62.32 88.74Q62.34 88.74 62.46 88.73Q62.58 88.71 62.72 88.7Q62.85 88.69 62.97 88.67Q63.09 88.66 63.13 88.66L63.38 88.66Q63.4 88.66 63.47 88.67Q63.54 88.69 63.62 88.7Q63.7 88.71 63.76 88.73Q63.83 88.74 63.84 88.74L64.3 88.74Q64.37 88.75 64.57 88.76Q64.77 88.77 64.99 88.79Q65.21 88.8 65.41 88.81Q65.61 88.83 65.68 88.83Q65.82 88.88 65.9 88.96Q65.97 89.04 66.04 89.12Q66.11 89.21 66.17 89.29Q66.23 89.38 66.33 89.45Q66.35 89.47 66.41 89.48Q66.46 89.5 66.47 89.51Q66.48 89.55 66.53 89.59Q66.58 89.64 66.59 89.65Q66.61 89.68 66.63 89.7Q66.76 89.87 66.87 90.07Q66.99 90.29 67.11 90.47Q67.12 90.48 67.15 90.51Q67.19 90.54 67.22 90.58L67.29 90.64Q67.32 90.67 67.32 90.68Q67.37 90.76 67.39 90.83Q67.42 90.9 67.44 90.97Q67.47 91.03 67.51 91.09Q67.56 91.16 67.65 91.22L67.71 91.22Q67.79 91.22 67.86 91.2Q67.87 91.19 67.88 91.19Q67.94 91.16 67.98 91.09L67.98 90.61Q67.98 90.57 67.97 90.45Q67.96 90.34 67.95 90.22Q67.94 90.09 67.93 89.98Q67.92 89.87 67.92 89.83Q67.9 89.71 67.88 89.48Q67.86 89.25 67.82 89.01Q67.79 88.77 67.73 88.58Q67.67 88.38 67.58 88.33Q67.54 88.29 67.46 88.25Q67.39 88.2 67.31 88.16Q67.24 88.12 67.18 88.1Q67.12 88.07 67.11 88.07Q67.1 88.06 66.99 88.05Q66.89 88.04 66.75 88.03L66.48 88.01Q66.34 88 66.27 87.99L65.23 87.99Q65.2 87.99 65.1 87.98Q65 87.97 64.88 87.97Q64.77 87.97 64.67 87.96Q64.58 87.95 64.55 87.95L64.44 87.95Q64.39 87.95 64.3 87.96Q64.22 87.97 64.12 87.97Q64.03 87.97 63.95 87.98Q63.87 87.99 63.84 87.99L61.9 87.99Q61.55 87.99 61.2 88Q60.85 88.01 60.48 88.01Q60.03 88.01 59.59 88Q59.15 87.98 58.71 87.95Q58.7 87.95 58.64 87.91Q58.62 87.9 58.59 87.87L58.55 87.87Q58.28 87.87 58.12 87.91Q57.95 87.95 57.74 88.07Q57.72 88.07 57.71 88.08Q57.7 88.09 57.69 88.1L57.65 88.12Q57.65 88.29 57.74 88.41Q57.74 88.41 57.74 88.41Q57.76 88.44 57.79 88.46Q57.87 88.54 57.98 88.59Q58.12 88.66 58.28 88.69Q58.45 88.72 58.59 88.74Q58.64 88.75 58.77 88.76Q58.9 88.77 59.04 88.77Q59.19 88.77 59.32 88.78Q59.45 88.79 59.51 88.8Q59.6 88.87 59.65 88.96Q59.66 88.99 59.67 89.01Q59.68 89.03 59.69 89.05Q59.73 89.16 59.74 89.27Q59.76 89.41 59.77 89.55Q59.78 89.7 59.82 89.83Q59.82 89.91 59.81 90.1Q59.8 90.29 59.8 90.52Q59.79 90.74 59.78 90.94Q59.77 91.14 59.76 91.22Q59.76 91.24 59.75 91.35Q59.74 91.46 59.73 91.58Q59.73 91.7 59.72 91.81Q59.71 91.92 59.71 91.95L59.71 92.01Q59.71 92.69 59.73 93.37Q59.76 94.06 59.76 94.76L59.76 95.23Q59.76 95.29 59.76 95.44Q59.75 95.59 59.75 95.81Q59.74 96.02 59.73 96.25Q59.73 96.48 59.72 96.69Q59.72 96.9 59.71 97.06Q59.71 97.21 59.71 97.26Q59.71 97.81 59.69 98.32Q59.67 98.83 59.57 99.35Q59.57 99.37 59.55 99.43Q59.52 99.49 59.51 99.51Q59.44 99.56 59.35 99.66Q59.25 99.76 59.23 99.76L58.4 99.76Q58.32 99.76 58.24 99.81Q58.15 99.86 58.08 99.93Q58 100 57.95 100.08Q57.91 100.17 57.91 100.24Q57.9 100.25 57.9 100.26Q57.9 100.26 57.91 100.26Q57.91 100.27 57.91 100.27Q57.91 100.28 57.94 100.28Q58.03 100.52 58.15 100.57Q58.27 100.61 58.5 100.61L58.54 100.61Q58.57 100.61 58.59 100.6Q58.63 100.6 58.65 100.6Q58.67 100.6 58.74 100.59Q58.8 100.58 58.88 100.57Q58.95 100.57 59.02 100.56Q59.08 100.55 59.11 100.55Q59.18 100.55 59.39 100.54Q59.59 100.53 59.82 100.53Q60.05 100.53 60.26 100.54Q60.46 100.55 60.55 100.55Q60.64 100.51 60.69 100.5Q60.75 100.49 60.84 100.49Q60.96 100.49 61.06 100.51Q61.15 100.53 61.28 100.57L63.58 100.57L64.66 100.63L64.88 100.55L64.93 100.55Q64.98 100.54 65.05 100.54Q65.11 100.54 65.18 100.54ZM5.62 100.45L5.82 100.45Q6.73 100.45 7.63 100.57Q7.68 100.57 7.72 100.58Q8.03 100.62 8.31 100.67Q8.58 100.72 8.91 100.72L8.92 100.72Q9.1 100.6 9.21 100.5Q9.23 100.48 9.24 100.46Q9.33 100.36 9.33 100.18Q9.33 100.1 9.3 100.02Q9.28 99.95 9.25 99.89Q9.23 99.87 9.21 99.84Q9.13 99.75 9 99.7Q8.93 99.7 8.78 99.69Q8.63 99.68 8.46 99.67Q8.29 99.66 8.14 99.66Q7.98 99.65 7.91 99.64Q7.76 99.63 7.6 99.61Q7.44 99.59 7.31 99.54Q7.21 99.5 7.15 99.44Q7.12 99.41 7.09 99.38Q7.01 99.28 7.01 99.09Q7.01 98.48 7.04 97.86Q7.07 97.25 7.07 96.64Q7.07 96.14 7.04 95.66Q7.01 95.18 7.01 94.7Q7.01 94.25 7.07 93.82Q7.14 93.4 7.14 92.95Q7.14 92.83 7.15 92.48Q7.16 92.13 7.16 91.74Q7.16 91.34 7.15 91Q7.14 90.66 7.14 90.51Q7.15 90.49 7.16 90.42Q7.17 90.36 7.17 90.29Q7.18 90.22 7.18 90.15Q7.19 90.08 7.2 90.06Q7.2 90.05 7.25 89.95Q7.29 89.85 7.33 89.79Q7.34 89.74 7.4 89.66Q7.44 89.63 7.47 89.59Q7.47 89.57 7.61 89.54Q7.74 89.51 7.81 89.51L8.65 89.51Q8.69 89.51 8.8 89.55Q8.91 89.59 8.92 89.59Q9.18 89.63 9.4 89.63Q9.62 89.63 9.85 89.72Q10.21 89.88 10.55 90.11Q10.72 90.23 10.84 90.38Q10.96 90.53 11.03 90.72Q11.09 90.84 11.14 90.98Q11.19 91.13 11.26 91.26Q11.3 91.34 11.34 91.41Q11.38 91.46 11.42 91.51Q11.47 91.57 11.53 91.62Q11.58 91.66 11.64 91.68Q11.66 91.7 11.68 91.71Q11.71 91.74 11.74 91.74Q11.78 91.74 11.83 91.71Q11.88 91.69 11.91 91.62Q11.94 91.38 11.96 91.2Q11.97 91.02 11.97 90.79L11.97 90.66Q11.97 90.65 11.97 90.6Q11.96 90.55 11.94 90.49Q11.93 90.44 11.92 90.39Q11.91 90.35 11.91 90.33Q11.9 90.22 11.86 89.93Q11.83 89.65 11.79 89.34Q11.76 89.02 11.74 88.73Q11.71 88.45 11.7 88.34Q11.64 88.18 11.52 88.11Q11.44 88.07 11.34 88.07L11.24 88.07Q11.09 88.12 10.93 88.26Q10.78 88.39 10.62 88.52Q10.46 88.66 10.3 88.76Q10.15 88.86 10 88.86L8.41 88.84Q8.01 88.84 7.75 88.85Q7.48 88.85 7.31 88.86Q7.14 88.87 7.04 88.89Q6.94 88.91 6.87 88.93Q6.83 88.93 6.72 88.92Q6.61 88.91 6.48 88.9Q6.35 88.89 6.24 88.88Q6.13 88.86 6.09 88.86Q6.08 88.85 6.02 88.85Q5.97 88.84 5.9 88.84L5.66 88.84Q5.43 88.84 5.24 88.89Q5.05 88.93 4.82 88.93L4.54 88.93Q4.53 88.93 4.49 88.92Q4.45 88.91 4.41 88.9Q4.37 88.89 4.34 88.88L4.3 88.86Q3.94 88.8 3.57 88.78Q3.2 88.77 2.83 88.77Q2.62 88.77 2.42 88.77Q2.22 88.78 2.03 88.78Q2 88.77 1.97 88.76Q1.9 88.72 1.84 88.65Q1.76 88.55 1.68 88.45Q1.6 88.35 1.51 88.27Q1.5 88.27 1.49 88.26Q1.4 88.19 1.27 88.19Q1.21 88.19 1.16 88.22Q1.13 88.23 1.1 88.25Q1.08 88.27 1.06 88.29Q1.02 88.33 0.98 88.39Q0.94 88.47 0.9 88.56Q0.87 88.65 0.85 88.72Q0.85 88.74 0.82 88.82Q0.79 88.9 0.75 88.99Q0.72 89.09 0.68 89.17Q0.65 89.25 0.65 89.27Q0.65 89.29 0.63 89.38Q0.61 89.46 0.59 89.56Q0.57 89.66 0.55 89.75Q0.53 89.84 0.53 89.86Q0.51 89.89 0.48 90Q0.45 90.1 0.42 90.22Q0.38 90.35 0.35 90.46Q0.32 90.57 0.31 90.59L0.31 90.65Q0.31 90.7 0.31 90.76Q0.3 90.81 0.3 90.87L0.3 91.05Q0.3 91.11 0.31 91.18Q0.31 91.24 0.31 91.3L0.31 91.38Q0.34 91.46 0.38 91.52Q0.39 91.53 0.39 91.53Q0.43 91.58 0.53 91.58Q0.61 91.58 0.67 91.55Q0.72 91.53 0.77 91.48Q0.87 91.38 0.94 91.26Q1.01 91.13 1.06 90.99Q1.12 90.86 1.18 90.78Q1.19 90.77 1.28 90.66Q1.37 90.56 1.49 90.42Q1.6 90.28 1.72 90.14Q1.84 90 1.91 89.93L1.98 89.86Q2.03 89.8 2.03 89.79Q2.15 89.71 2.27 89.68Q2.3 89.67 2.33 89.67Q2.49 89.64 2.62 89.59Q2.69 89.6 2.85 89.6L3.53 89.6Q3.7 89.6 3.75 89.59Q3.77 89.59 3.84 89.58Q3.91 89.57 3.98 89.55Q4.06 89.54 4.12 89.53Q4.19 89.51 4.2 89.51Q4.25 89.51 4.36 89.52Q4.47 89.53 4.59 89.54Q4.71 89.56 4.82 89.57Q4.93 89.58 4.97 89.59Q5.09 89.71 5.17 89.82Q5.24 89.94 5.29 90.12Q5.29 90.23 5.28 90.53Q5.28 90.82 5.28 91.15Q5.28 91.48 5.27 91.78Q5.27 92.09 5.27 92.22Q5.27 92.59 5.28 92.96Q5.29 93.33 5.29 93.71Q5.29 94.63 5.28 95.55Q5.27 96.47 5.22 97.39Q5.22 97.41 5.21 97.52Q5.19 97.62 5.18 97.74Q5.16 97.85 5.15 97.95Q5.14 98.05 5.14 98.07L5.14 99.05Q5.14 99.18 5.1 99.31Q5.08 99.42 5.03 99.51Q5.02 99.52 5.02 99.53Q4.97 99.58 4.91 99.61Q4.84 99.65 4.75 99.67Q4.65 99.69 4.57 99.69Q4.48 99.7 4.42 99.7Q4.34 99.72 4.12 99.73Q3.9 99.74 3.66 99.76Q3.41 99.77 3.19 99.78Q2.97 99.79 2.89 99.8Q2.87 99.8 2.86 99.81Q2.78 99.86 2.74 99.95Q2.68 100.07 2.68 100.18Q2.68 100.29 2.74 100.36Q2.76 100.39 2.78 100.41Q2.88 100.49 3.01 100.53Q3.14 100.57 3.29 100.57Q3.43 100.58 3.53 100.58Q3.99 100.58 4.44 100.57Q4.9 100.55 5.35 100.51Q5.36 100.51 5.4 100.5Q5.44 100.49 5.49 100.48Q5.53 100.46 5.57 100.46Q5.61 100.45 5.62 100.45ZM40.42 93.32Q40.47 93.42 40.5 93.59Q40.49 93.7 40.48 93.89Q40.48 94.09 40.48 94.34L40.48 96.61Q40.48 96.86 40.48 97.05Q40.49 97.24 40.5 97.34Q40.5 97.82 40.57 98.31Q40.64 98.79 40.83 99.22Q40.88 99.34 40.96 99.43Q41.03 99.52 41.11 99.6Q41.19 99.68 41.27 99.77Q41.35 99.85 41.42 99.96L41.48 100.01Q41.53 100.06 41.64 100.13Q41.74 100.21 41.85 100.29Q41.96 100.37 42.05 100.42Q42.14 100.48 42.16 100.49Q42.24 100.53 42.32 100.56Q42.33 100.56 42.35 100.57Q42.45 100.59 42.55 100.6Q42.65 100.61 42.75 100.63Q42.82 100.64 42.88 100.66Q42.92 100.68 42.96 100.69L43.48 100.69Q43.65 100.69 43.78 100.68Q43.91 100.66 44.04 100.64Q44.16 100.61 44.29 100.59Q44.41 100.57 44.58 100.55L44.84 100.55Q44.85 100.54 44.91 100.5Q44.97 100.46 45.04 100.41Q45.12 100.36 45.19 100.31Q45.26 100.26 45.29 100.24Q45.58 99.99 45.83 99.75Q46 99.59 46.13 99.39Q46.19 99.31 46.23 99.22Q46.25 99.19 46.3 99.09Q46.36 99 46.41 98.88Q46.47 98.77 46.52 98.67Q46.56 98.57 46.58 98.56Q46.59 98.54 46.65 98.45Q46.71 98.35 46.71 98.33Q46.72 98.33 46.73 98.27Q46.74 98.21 46.75 98.15Q46.75 98.08 46.76 98.02Q46.77 97.95 46.79 97.93Q46.79 97.91 46.81 97.85Q46.82 97.78 46.85 97.7Q46.87 97.62 46.88 97.56Q46.9 97.49 46.91 97.47Q46.94 97.38 46.94 97.3Q46.95 97.22 46.96 97.14Q46.96 97.05 46.98 96.97Q47 96.89 47.04 96.8Q47.05 96.7 47.06 96.46Q47.07 96.23 47.08 95.96Q47.1 95.69 47.1 95.45Q47.11 95.22 47.12 95.12L47.12 94.39Q47.12 94.38 47.15 94.29Q47.18 94.21 47.18 94.18L47.18 94.03Q47.18 93.89 47.15 93.78Q47.12 93.68 47.12 93.54Q47.12 93.46 47.14 93.39Q47.17 93.31 47.21 93.25Q47.26 93.17 47.33 93.12Q47.38 93.08 47.44 93.05Q47.56 93 47.71 92.98Q47.85 92.95 47.98 92.9Q48.09 92.86 48.17 92.78Q48.18 92.77 48.19 92.76Q48.27 92.67 48.27 92.49Q48.27 92.47 48.27 92.4Q48.26 92.33 48.25 92.31Q48.13 92.23 47.97 92.2Q47.8 92.18 47.62 92.18Q47.51 92.18 47.4 92.18Q47.29 92.19 47.21 92.19L46.66 92.19Q46.57 92.19 46.43 92.22Q46.3 92.25 46.23 92.25Q46.08 92.25 45.92 92.23Q45.76 92.22 45.6 92.22Q45.38 92.22 45.18 92.26Q45.12 92.27 45.06 92.3Q44.93 92.35 44.84 92.47Q44.83 92.49 44.82 92.51Q44.81 92.54 44.81 92.55Q44.81 92.62 44.81 92.63Q44.82 92.65 44.84 92.69Q44.99 92.89 45.17 92.95Q45.35 93.01 45.57 93.05Q45.6 93.07 45.65 93.07Q45.68 93.07 45.71 93.06Q45.74 93.05 45.79 93.05Q45.84 93.05 45.9 93.12Q45.92 93.12 45.94 93.16Q45.95 93.21 45.96 93.26Q46 93.29 46.05 93.42Q46.1 93.55 46.12 93.59Q46.12 93.67 46.13 93.86Q46.15 94.05 46.17 94.26Q46.19 94.47 46.21 94.65Q46.23 94.84 46.23 94.91L46.23 95.67Q46.23 95.69 46.23 95.74Q46.22 95.79 46.21 95.85Q46.21 95.9 46.2 95.95Q46.19 96 46.19 96.01Q46.16 96.3 46.16 96.61Q46.15 96.91 46.13 97.23Q46.11 97.54 46.06 97.84Q46.01 98.13 45.9 98.41Q45.9 98.42 45.88 98.49Q45.87 98.55 45.84 98.61Q45.82 98.68 45.8 98.74Q45.78 98.8 45.77 98.82Q45.65 99 45.47 99.21Q45.28 99.42 45.05 99.5Q45.05 99.5 45.04 99.51Q45 99.51 44.92 99.53Q44.84 99.54 44.77 99.56Q44.67 99.58 44.58 99.61L44.44 99.61Q44.43 99.61 44.38 99.63Q44.34 99.65 44.28 99.67Q44.22 99.7 44.17 99.73Q44.12 99.75 44.11 99.76L43.98 99.76Q43.89 99.76 43.81 99.73Q43.73 99.71 43.66 99.68Q43.59 99.65 43.51 99.62Q43.43 99.58 43.33 99.58L43.33 99.58Q43.33 99.57 43.27 99.57Q43.23 99.57 43.17 99.54Q43.11 99.51 43.09 99.51Q42.98 99.48 42.86 99.38Q42.75 99.29 42.63 99.16Q42.52 99.03 42.42 98.9Q42.33 98.77 42.3 98.68Q42.26 98.62 42.23 98.51Q42.19 98.41 42.16 98.29Q42.13 98.18 42.1 98.07Q42.08 97.96 42.07 97.89Q42.07 97.84 42.06 97.74Q42.06 97.63 42.05 97.52Q42.04 97.4 42.04 97.29Q42.03 97.18 42.02 97.13Q42.02 97.12 42.02 97.04Q42.01 96.97 41.99 96.9Q41.98 96.82 41.97 96.75Q41.95 96.68 41.95 96.66L41.95 96.47Q41.96 96.44 41.99 96.33Q42.02 96.23 42.02 96.18L42.02 95.41Q42.02 95.38 42.03 95.3Q42.04 95.23 42.05 95.13Q42.05 95.04 42.06 94.96Q42.07 94.88 42.07 94.87L42.07 94.86Q42.09 94.85 42.1 94.8Q42.1 94.75 42.1 94.72Q42.1 94.6 42.06 94.51Q42.02 94.43 42.02 94.29Q42.02 94.17 42.03 94.02Q42.04 93.87 42.07 93.72Q42.1 93.56 42.16 93.43Q42.21 93.29 42.3 93.2Q42.38 93.1 42.52 93.04Q42.67 92.98 42.81 92.92Q42.96 92.86 43.06 92.78Q43.1 92.75 43.12 92.72Q43.17 92.65 43.17 92.55Q43.17 92.41 43.1 92.33Q43.06 92.29 43 92.26Q42.82 92.19 42.62 92.19L42.56 92.19Q42.54 92.19 42.46 92.22Q42.38 92.25 42.36 92.25Q42.19 92.27 42.05 92.28L41.77 92.3Q41.63 92.31 41.48 92.31L40.83 92.31Q40.57 92.26 40.42 92.24Q40.26 92.22 40.11 92.22Q40.01 92.22 39.9 92.23Q39.79 92.24 39.7 92.25Q39.66 92.26 39.58 92.28Q39.5 92.3 39.48 92.31Q39.48 92.31 39.47 92.32Q39.45 92.34 39.44 92.39Q39.44 92.45 39.44 92.47Q39.44 92.52 39.47 92.63Q39.49 92.74 39.55 92.8Q39.57 92.82 39.67 92.84Q39.77 92.86 39.87 92.91L40.13 93.04Q40.24 93.09 40.31 93.16Q40.38 93.22 40.42 93.32ZM12.62 100.45Q12.67 100.52 12.67 100.55Q12.72 100.57 12.83 100.59Q12.93 100.61 13.05 100.64Q13.16 100.66 13.26 100.68Q13.36 100.69 13.41 100.69Q13.45 100.69 13.56 100.66Q13.66 100.62 13.7 100.6Q13.71 100.6 13.77 100.6Q13.82 100.61 13.88 100.61Q13.94 100.61 13.94 100.6L13.94 100.6Q13.97 100.6 14.03 100.59Q14.09 100.59 14.16 100.58Q14.22 100.58 14.28 100.57Q14.34 100.56 14.37 100.55L17.7 100.55Q17.73 100.55 17.89 100.54Q18.06 100.53 18.24 100.53Q18.42 100.52 18.58 100.5Q18.73 100.49 18.78 100.47L19.09 100.47Q19.16 100.49 19.33 100.5Q19.5 100.51 19.68 100.52Q19.87 100.53 20.03 100.53Q20.19 100.54 20.25 100.55Q20.27 100.55 20.29 100.55Q20.39 100.53 20.49 100.46Q20.6 100.37 20.68 100.24Q20.73 100.14 20.77 100.03Q20.79 100 20.8 99.96Q20.84 99.81 20.84 99.7L20.84 99.67Q20.84 99.64 20.83 99.47Q20.83 99.3 20.82 99.11Q20.82 98.93 20.81 98.76Q20.8 98.59 20.8 98.55L20.8 98.36Q20.8 98.29 20.79 98.23Q20.78 98.19 20.77 98.16Q20.76 98.12 20.74 98.1Q20.7 98.06 20.61 98.06L20.6 98.06Q20.59 98.06 20.59 98.06Q20.59 98.06 20.59 98.07Q20.57 98.09 20.55 98.1Q20.53 98.13 20.53 98.13Q20.52 98.15 20.49 98.2Q20.46 98.25 20.42 98.31Q20.39 98.36 20.35 98.41Q20.32 98.46 20.32 98.49Q20.31 98.5 20.27 98.54Q20.24 98.58 20.19 98.62Q20.15 98.66 20.1 98.69Q20.06 98.72 20.05 98.72Q20.04 98.75 19.99 98.83Q19.94 98.92 19.9 98.94Q19.83 99.09 19.79 99.24Q19.74 99.39 19.65 99.53Q19.62 99.58 19.59 99.61Q19.57 99.63 19.54 99.63Q19.52 99.64 19.48 99.64Q19.44 99.65 19.37 99.67Q19.37 99.67 19.33 99.71Q19.3 99.74 19.25 99.78Q19.2 99.82 19.16 99.85Q19.11 99.88 19.09 99.88L18.5 99.88Q18.49 99.88 18.43 99.9Q18.37 99.91 18.3 99.92Q18.23 99.94 18.17 99.95Q18.11 99.96 18.09 99.96L16.76 99.96Q16.74 99.94 16.69 99.91Q16.65 99.88 16.63 99.88Q16.41 99.82 16.26 99.8Q16.11 99.77 16.02 99.72Q16 99.71 15.98 99.7Q15.91 99.64 15.88 99.54Q15.83 99.42 15.83 99.15Q15.83 98.64 15.87 98.16Q15.9 97.68 15.9 97.16L15.9 96.86L16.03 96.72Q16.04 96.72 16.08 96.72Q16.12 96.71 16.18 96.71Q16.24 96.71 16.29 96.71Q16.35 96.7 16.38 96.7Q16.42 96.7 16.5 96.71Q16.58 96.71 16.66 96.71Q16.75 96.71 16.81 96.72Q16.88 96.72 16.91 96.72Q16.94 96.72 17.05 96.73Q17.16 96.75 17.29 96.77Q17.41 96.79 17.53 96.82Q17.64 96.84 17.7 96.86Q17.76 96.9 17.82 96.93Q17.89 96.96 17.92 96.99Q17.92 97.04 17.92 97.13Q17.93 97.23 17.94 97.34Q17.95 97.45 17.96 97.54Q17.98 97.63 17.99 97.66Q18 97.74 18.03 97.83Q18.07 97.92 18.12 98.01Q18.17 98.1 18.23 98.16Q18.28 98.2 18.34 98.21Q18.35 98.21 18.36 98.21Q18.47 98.21 18.54 98.18Q18.62 98.14 18.72 98.07Q18.72 98.05 18.73 97.98Q18.74 97.91 18.75 97.83Q18.75 97.76 18.76 97.7Q18.77 97.63 18.78 97.62L18.78 96.86Q18.78 96.79 18.79 96.61Q18.79 96.43 18.8 96.23Q18.81 96.03 18.82 95.84Q18.83 95.66 18.84 95.58Q18.88 95.51 18.9 95.43Q18.92 95.36 18.92 95.28L18.92 94.95Q18.92 94.84 18.89 94.75Q18.88 94.72 18.86 94.7Q18.82 94.65 18.73 94.65Q18.62 94.65 18.5 94.68Q18.42 94.7 18.35 94.75Q18.34 94.77 18.32 94.79Q18.3 94.8 18.29 94.92Q18.27 95.04 18.25 95.08Q18.24 95.08 18.2 95.17Q18.16 95.26 18.11 95.38L18 95.62Q17.95 95.74 17.92 95.8Q17.91 95.81 17.89 95.84Q17.87 95.88 17.85 95.92Q17.82 95.96 17.8 96.01Q17.78 96.05 17.78 96.07Q17.46 96.11 17.23 96.12Q17.01 96.13 16.71 96.13L16.23 96.13Q16.13 96.1 16.05 96.03Q15.96 95.95 15.9 95.87Q15.89 95.83 15.88 95.72Q15.87 95.61 15.86 95.49Q15.85 95.37 15.84 95.27Q15.83 95.16 15.83 95.12L15.83 95.01Q15.83 94.92 15.85 94.7Q15.87 94.48 15.89 94.23Q15.91 93.99 15.93 93.77Q15.96 93.55 15.96 93.45Q16.01 93.34 16.06 93.22Q16.11 93.1 16.17 93Q16.19 92.97 16.21 92.95Q16.27 92.89 16.34 92.84Q16.45 92.78 16.61 92.78L16.63 92.78Q16.66 92.78 16.78 92.79Q16.9 92.79 17.04 92.8Q17.18 92.8 17.3 92.81Q17.41 92.82 17.44 92.83L17.47 92.83Q17.49 92.83 17.56 92.8Q17.62 92.78 17.65 92.78L17.7 92.78Q17.71 92.79 17.78 92.81Q17.85 92.83 17.94 92.85Q18.02 92.87 18.09 92.89Q18.16 92.91 18.19 92.91Q18.19 92.91 18.24 92.92Q18.29 92.93 18.34 92.94Q18.4 92.96 18.45 92.97Q18.5 92.98 18.5 92.98L18.51 92.98Q18.55 92.98 18.58 93.05Q18.6 93.07 18.66 93.15Q18.72 93.23 18.78 93.32Q18.85 93.41 18.9 93.49Q18.96 93.57 18.98 93.59Q18.99 93.6 19.08 93.68Q19.17 93.77 19.19 93.8Q19.25 93.89 19.29 93.99Q19.31 94.04 19.32 94.08Q19.37 94.23 19.42 94.38Q19.45 94.48 19.5 94.58Q19.52 94.62 19.55 94.67Q19.63 94.8 19.78 94.91Q19.78 94.91 19.78 94.92Q19.79 94.93 19.81 94.93L19.84 94.93Q19.85 94.93 19.85 94.92Q19.86 94.92 19.86 94.91Q19.88 94.91 19.92 94.86Q19.96 94.81 19.98 94.79Q19.99 94.72 20.01 94.58Q20.03 94.43 20.06 94.28Q20.08 94.13 20.1 93.99Q20.11 93.85 20.11 93.8L20.11 92.78Q20.06 92.58 19.95 92.44Q19.94 92.44 19.94 92.43Q19.82 92.31 19.57 92.31L15.44 92.31Q15.39 92.3 15.29 92.29Q15.18 92.28 15.06 92.27Q14.95 92.26 14.84 92.25Q14.73 92.25 14.69 92.24L14.46 92.24Q14.05 92.24 13.64 92.28Q13.24 92.33 12.82 92.31Q12.78 92.41 12.78 92.47Q12.77 92.54 12.77 92.62Q12.77 92.78 12.86 92.86Q12.89 92.9 12.94 92.91Q13.11 92.98 13.35 92.98L13.71 92.98Q13.86 92.98 13.98 92.99Q14.11 93.01 14.21 93.07Q14.22 93.08 14.24 93.09Q14.31 93.14 14.37 93.23Q14.43 93.34 14.43 93.51L14.43 97.34Q14.42 97.37 14.4 97.44Q14.38 97.51 14.37 97.59Q14.36 97.68 14.35 97.75Q14.34 97.82 14.34 97.84L14.34 97.91Q14.34 98.21 14.35 98.49Q14.37 98.77 14.37 99.08L14.37 99.22Q14.37 99.34 14.34 99.48Q14.33 99.54 14.3 99.59Q14.26 99.64 14.2 99.67L14.16 99.69Q14.12 99.71 14.07 99.72L13.97 99.75Q13.93 99.76 13.9 99.76L13.28 99.76Q13.23 99.76 13.13 99.78Q13.03 99.8 13.01 99.82Q12.99 99.85 12.92 99.91Q12.85 99.97 12.78 100.05Q12.7 100.12 12.64 100.19Q12.58 100.26 12.56 100.3L12.56 100.34Q12.57 100.39 12.62 100.45ZM54.17 93.53Q54.15 93.55 54.14 93.56Q54.09 93.62 54.03 93.77Q53.96 93.92 53.88 94.08Q53.8 94.24 53.71 94.39Q53.62 94.55 53.53 94.62Q53.31 94.79 53.17 94.88Q53.04 94.97 52.93 94.97Q52.9 94.97 52.87 94.96Q52.84 94.95 52.81 94.92Q52.76 94.87 52.7 94.78Q52.68 94.73 52.58 94.57Q52.48 94.4 52.37 94.2Q52.26 94 52.17 93.83Q52.08 93.66 52.05 93.62Q52.02 93.57 51.96 93.46Q51.91 93.35 51.91 93.28Q51.91 93.12 51.98 93.07Q52.05 93.02 52.14 92.98Q52.17 92.97 52.2 92.95Q52.25 92.92 52.3 92.88Q52.37 92.82 52.37 92.64Q52.37 92.46 52.28 92.4Q52.28 92.4 52.27 92.39Q52.17 92.34 51.96 92.34Q51.4 92.34 50.85 92.38Q50.3 92.41 49.74 92.41L49.7 92.41Q49.68 92.41 49.64 92.4Q49.6 92.4 49.55 92.39Q49.5 92.38 49.46 92.37L49.42 92.36L49.39 92.36Q49.29 92.36 49.25 92.39L49.25 92.39Q49.21 92.41 49.21 92.51Q49.21 92.58 49.22 92.65Q49.22 92.66 49.23 92.67Q49.24 92.72 49.3 92.76Q49.42 92.87 49.56 92.96Q49.69 93.05 49.82 93.13Q49.94 93.22 50.07 93.32Q50.19 93.42 50.3 93.56Q50.42 93.7 50.5 93.86Q50.54 93.92 50.57 94Q50.67 94.23 50.85 94.45Q50.87 94.48 50.91 94.5Q50.92 94.52 50.93 94.53Q50.95 94.53 50.95 94.54L50.97 94.56Q50.98 94.58 50.99 94.63Q51.01 94.68 51.02 94.73Q51.04 94.79 51.06 94.83Q51.08 94.88 51.09 94.89Q51.14 94.95 51.2 95.1Q51.27 95.25 51.31 95.32Q51.31 95.33 51.35 95.4Q51.39 95.46 51.44 95.54Q51.48 95.61 51.53 95.68Q51.57 95.75 51.58 95.78Q51.68 96.03 51.81 96.23Q51.93 96.43 52.18 96.58Q52.18 96.6 52.18 96.65Q52.18 96.71 52.19 96.77Q52.19 96.83 52.2 96.89Q52.2 96.94 52.2 96.97Q52.2 96.99 52.2 97.05Q52.19 97.11 52.19 97.17Q52.18 97.23 52.18 97.28L52.18 97.33Q52.18 97.33 52.14 97.38Q52.11 97.43 52.07 97.49Q52.04 97.55 51.99 97.62Q51.94 97.69 51.91 97.72Q51.9 97.74 51.84 97.8Q51.78 97.85 51.76 97.88Q51.6 98.18 51.44 98.46Q51.28 98.75 51.05 99.01Q51.01 99.06 50.9 99.16Q50.79 99.27 50.67 99.38Q50.55 99.5 50.44 99.6Q50.34 99.7 50.3 99.73Q50.26 99.76 50.22 99.79Q50.13 99.84 50.02 99.88Q49.87 99.94 49.73 100Q49.66 100.03 49.59 100.06Q49.51 100.1 49.45 100.14Q49.41 100.16 49.38 100.18Q49.28 100.25 49.21 100.34L49.21 100.41Q49.21 100.44 49.22 100.5Q49.22 100.52 49.24 100.53Q49.26 100.55 49.3 100.55L51.76 100.55Q51.84 100.53 51.9 100.5Q51.9 100.49 51.9 100.49Q51.96 100.45 51.96 100.34Q51.93 100.3 51.9 100.27Q51.83 100.2 51.73 100.16Q51.59 100.1 51.45 100.06Q51.31 100.02 51.2 99.97Q51.15 99.95 51.13 99.91Q51.09 99.86 51.09 99.8L51.09 99.73Q51.11 99.72 51.13 99.67Q51.16 99.62 51.17 99.61Q51.2 99.58 51.31 99.41Q51.42 99.24 51.55 99.05Q51.67 98.86 51.78 98.69Q51.89 98.53 51.91 98.49Q51.96 98.39 52.02 98.26Q52.07 98.13 52.14 98.01Q52.21 97.89 52.31 97.81Q52.33 97.79 52.35 97.78Q52.43 97.72 52.55 97.72Q52.63 97.72 52.74 97.85Q52.84 97.99 52.96 98.19Q53.08 98.39 53.19 98.64Q53.3 98.88 53.39 99.11Q53.49 99.35 53.54 99.54Q53.59 99.73 53.59 99.82Q53.59 99.98 53.52 100.04Q53.46 100.1 53.38 100.14Q53.34 100.16 53.31 100.19Q53.27 100.21 53.24 100.24Q53.18 100.29 53.18 100.43L53.18 100.49Q53.21 100.51 53.32 100.53Q53.43 100.55 53.47 100.55Q53.5 100.55 53.63 100.56Q53.77 100.57 53.92 100.57Q54.07 100.58 54.21 100.59Q54.35 100.6 54.39 100.6Q54.4 100.61 54.46 100.63Q54.51 100.64 54.57 100.66Q54.63 100.68 54.68 100.68Q54.73 100.69 54.74 100.69L54.79 100.69Q54.82 100.69 54.96 100.68Q55.1 100.68 55.27 100.66Q55.43 100.64 55.57 100.63Q55.71 100.61 55.74 100.6Q55.81 100.6 55.89 100.6Q55.97 100.61 56.05 100.61Q56.19 100.61 56.3 100.57Q56.33 100.56 56.34 100.54Q56.41 100.48 56.41 100.34Q56.41 100.23 56.36 100.16Q56.34 100.14 56.33 100.13Q56.25 100.05 56.13 100.01Q56.01 99.96 55.88 99.92Q55.76 99.88 55.68 99.82Q55.46 99.64 55.3 99.44Q55.16 99.27 55.04 99.08Q55.02 99.05 55 99.01Q54.87 98.79 54.75 98.54Q54.64 98.3 54.53 98.06L54.32 97.66Q54.3 97.63 54.25 97.55Q54.19 97.46 54.12 97.36Q54.05 97.26 53.99 97.17Q53.93 97.09 53.92 97.07L53.88 96.97Q53.84 96.9 53.78 96.8Q53.73 96.7 53.68 96.6Q53.63 96.5 53.59 96.45Q53.5 96.27 53.41 96.07Q53.31 95.87 53.31 95.68Q53.31 95.59 53.33 95.54Q53.35 95.49 53.39 95.43Q53.46 95.29 53.56 95.14Q53.67 94.99 53.78 94.89Q53.81 94.87 53.84 94.84Q53.87 94.82 53.89 94.79Q53.93 94.72 53.97 94.68Q54 94.65 54.07 94.57Q54.14 94.49 54.22 94.39Q54.3 94.29 54.37 94.21Q54.44 94.13 54.47 94.1Q54.74 93.77 55.05 93.53Q55.35 93.3 55.74 93.16Q55.87 93.12 56.03 93.1Q56.19 93.07 56.34 93.02Q56.49 92.98 56.59 92.88Q56.6 92.87 56.61 92.86Q56.69 92.76 56.69 92.6Q56.69 92.47 56.65 92.4Q56.62 92.35 56.59 92.33Q56.56 92.31 56.53 92.3Q56.46 92.27 56.35 92.27Q56.25 92.26 56.14 92.26Q55.99 92.26 55.84 92.28Q55.69 92.29 55.53 92.36L53.99 92.36Q53.97 92.36 53.87 92.38Q53.77 92.4 53.72 92.41Q53.68 92.43 53.62 92.45Q53.56 92.47 53.51 92.49Q53.46 92.51 53.42 92.54Q53.4 92.56 53.39 92.58Q53.39 92.6 53.39 92.62Q53.39 92.67 53.41 92.71Q53.45 92.77 53.52 92.8Q53.66 92.84 53.82 92.88Q53.99 92.92 54.12 93Q54.17 93.02 54.2 93.06Q54.26 93.13 54.26 93.26Q54.26 93.34 54.23 93.43Q54.21 93.5 54.17 93.53ZM31.09 100.57Q31.17 100.55 31.19 100.55Q31.2 100.55 31.28 100.57Q31.35 100.58 31.45 100.6Q31.54 100.61 31.62 100.63Q31.7 100.64 31.72 100.64Q31.77 100.64 31.85 100.64Q31.93 100.63 32 100.6Q32 100.6 32.11 100.57Q32.21 100.55 32.22 100.55L32.81 100.55Q32.85 100.55 32.98 100.54Q33.12 100.53 33.27 100.53Q33.42 100.52 33.55 100.51Q33.68 100.5 33.73 100.49L33.87 100.49Q33.88 100.5 33.92 100.51Q33.96 100.52 34.02 100.53Q34.07 100.53 34.11 100.54Q34.16 100.55 34.17 100.55Q34.25 100.56 34.39 100.57Q34.54 100.58 34.69 100.58Q34.84 100.59 34.97 100.59Q35.1 100.6 35.14 100.6Q35.15 100.6 35.33 100.61Q35.5 100.61 35.74 100.61L37.38 100.61Q37.62 100.61 37.83 100.61Q38.04 100.6 38.12 100.6Q38.35 100.54 38.45 100.47Q38.53 100.42 38.57 100.35Q38.58 100.32 38.59 100.3Q38.63 100.19 38.63 100.05Q38.63 99.9 38.65 99.7Q38.65 99.68 38.68 99.61Q38.7 99.53 38.7 99.51L38.71 99.47Q38.71 99.43 38.71 99.37L38.71 99.14Q38.71 99.04 38.71 98.89Q38.7 98.8 38.69 98.72Q38.68 98.65 38.67 98.58Q38.63 98.43 38.55 98.32Q38.52 98.27 38.47 98.25Q38.41 98.21 38.33 98.21Q38.26 98.21 38.25 98.22Q38.24 98.23 38.2 98.28Q38.17 98.3 38.12 98.38Q38.07 98.45 38 98.53Q37.94 98.62 37.88 98.69Q37.82 98.77 37.79 98.8Q37.79 98.82 37.74 98.91Q37.68 99 37.66 99.01L37.62 99.06Q37.61 99.06 37.58 99.08Q37.55 99.09 37.52 99.12Q37.48 99.15 37.45 99.17Q37.42 99.19 37.42 99.2Q37.41 99.21 37.39 99.24Q37.37 99.28 37.36 99.32L37.32 99.4Q37.3 99.44 37.3 99.44Q37.28 99.48 37.22 99.54Q37.16 99.6 37.1 99.67Q37.03 99.73 36.98 99.78Q36.93 99.83 36.91 99.84Q36.9 99.85 36.84 99.86Q36.78 99.87 36.7 99.88Q36.62 99.89 36.54 99.9Q36.45 99.91 36.42 99.91L34.93 99.91Q34.68 99.91 34.4 99.95Q34.12 99.99 33.87 100.03L33.82 100.03Q33.76 100.03 33.71 100.01Q33.62 99.98 33.56 99.89Q33.49 99.79 33.47 99.69Q33.46 99.63 33.46 99.58L33.46 99.54Q33.46 99.51 33.46 99.5Q33.46 99.47 33.47 99.44Q33.47 99.42 33.5 99.38Q33.53 99.34 33.53 99.32Q33.53 99.3 33.5 99.23Q33.47 99.15 33.47 99.14L33.47 99.01Q33.47 99 33.48 98.92Q33.49 98.84 33.5 98.74Q33.51 98.64 33.52 98.56Q33.53 98.47 33.53 98.44L33.53 96.6Q33.53 96.57 33.54 96.47Q33.55 96.38 33.56 96.27Q33.58 96.16 33.59 96.06Q33.6 95.97 33.6 95.96L33.6 94.84Q33.6 94.43 33.63 94.05Q33.65 93.66 33.73 93.27Q33.74 93.22 33.77 93.18Q33.78 93.16 33.79 93.15Q33.81 93.13 33.84 93.11Q33.87 93.09 33.91 93.09Q33.94 93.09 34.05 93.08Q34.17 93.06 34.3 93.05Q34.43 93.04 34.55 93.02Q34.67 93.01 34.7 93.01Q34.8 92.99 34.95 92.91Q35.1 92.83 35.17 92.78Q35.17 92.76 35.19 92.72Q35.2 92.67 35.2 92.64Q35.2 92.52 35.15 92.45Q35.12 92.42 35.1 92.4Q35.05 92.37 35 92.35Q34.91 92.32 34.81 92.31Q34.7 92.3 34.6 92.3Q34.58 92.3 34.57 92.3Q34.55 92.31 34.54 92.31L34.5 92.31Q34.49 92.31 34.44 92.32Q34.4 92.33 34.34 92.33Q34.28 92.34 34.23 92.35Q34.18 92.36 34.17 92.36L33.73 92.36Q33.72 92.36 33.66 92.37Q33.6 92.38 33.54 92.39Q33.47 92.4 33.41 92.41Q33.35 92.42 33.33 92.43L33.15 92.43Q33.1 92.42 32.95 92.41Q32.79 92.4 32.61 92.39Q32.43 92.38 32.27 92.37Q32.11 92.36 32.07 92.36Q32.04 92.36 31.96 92.37Q31.87 92.38 31.78 92.39Q31.69 92.4 31.61 92.4Q31.53 92.41 31.5 92.41Q31.41 92.43 31.23 92.4Q31.06 92.36 30.93 92.36Q30.87 92.36 30.79 92.39Q30.73 92.41 30.68 92.44Q30.66 92.46 30.63 92.47Q30.56 92.53 30.51 92.59Q30.48 92.64 30.46 92.68Q30.46 92.71 30.46 92.74Q30.46 92.83 30.5 92.89Q30.53 92.92 30.56 92.94Q30.66 93.01 30.82 93.04Q30.98 93.06 31.17 93.07Q31.35 93.07 31.53 93.1Q31.7 93.12 31.82 93.18Q31.89 93.21 31.93 93.26Q31.97 93.31 32 93.37Q32 93.39 32.01 93.45Q32.02 93.5 32.03 93.58Q32.04 93.65 32.05 93.72Q32.07 93.79 32.07 93.83L32.07 95.05Q32.07 95.21 32.05 95.45Q32.04 95.7 32.03 95.94Q32.01 96.17 32 96.35Q32 96.52 32 96.53L31.95 96.64Q31.95 96.7 31.96 96.82Q31.96 96.93 31.96 97.07Q31.96 97.21 31.96 97.33Q31.95 97.45 31.95 97.49Q31.95 97.6 31.94 97.84Q31.93 98.09 31.93 98.35Q31.92 98.62 31.91 98.84Q31.9 99.07 31.9 99.14Q31.9 99.16 31.89 99.23Q31.88 99.3 31.87 99.39Q31.86 99.47 31.84 99.55Q31.83 99.62 31.83 99.66Q31.83 99.67 31.82 99.7Q31.81 99.73 31.8 99.76Q31.79 99.8 31.79 99.84Q31.74 99.89 31.51 99.91Q31.28 99.92 31.03 99.93Q30.77 99.95 30.57 99.98Q30.37 100.02 30.35 100.1Q30.35 100.11 30.35 100.11L30.35 100.24Q30.35 100.37 30.41 100.44Q30.43 100.47 30.45 100.49Q30.49 100.52 30.54 100.54Q30.62 100.58 30.73 100.59Q30.84 100.6 30.96 100.6L30.99 100.6Q31 100.6 31.09 100.57ZM22.2 100.51L22.28 100.51Q22.31 100.51 22.42 100.52Q22.54 100.53 22.68 100.55Q22.82 100.56 22.93 100.57Q23.05 100.58 23.08 100.58L23.95 100.58Q23.98 100.59 24.07 100.6Q24.16 100.6 24.25 100.61Q24.35 100.62 24.44 100.63Q24.53 100.64 24.57 100.64Q24.7 100.61 24.77 100.52Q24.84 100.43 24.84 100.28Q24.84 100.16 24.78 100.08Q24.77 100.06 24.75 100.05Q24.67 99.97 24.53 99.93Q24.4 99.89 24.25 99.87Q24.1 99.85 23.97 99.81Q23.84 99.78 23.75 99.71Q23.73 99.7 23.72 99.68Q23.66 99.62 23.66 99.51Q23.66 99.26 23.68 99.03Q23.68 98.98 23.69 98.94Q23.72 98.75 23.8 98.57Q23.83 98.56 23.89 98.47Q23.95 98.38 23.95 98.36Q23.95 98.35 23.97 98.3Q23.99 98.24 24.01 98.17Q24.03 98.11 24.06 98.05Q24.08 97.99 24.09 97.99Q24.09 97.95 24.16 97.89Q24.22 97.89 24.28 97.9Q24.34 97.91 24.4 97.91Q24.71 97.91 24.99 97.86Q25.26 97.82 25.58 97.82L25.76 97.82Q25.92 97.82 26.09 97.85Q26.17 97.86 26.24 97.9Q26.31 97.95 26.36 98.03Q26.39 98.07 26.43 98.16Q26.47 98.24 26.51 98.33Q26.55 98.42 26.58 98.49Q26.62 98.56 26.63 98.57Q26.64 98.59 26.67 98.7Q26.7 98.81 26.73 98.95L26.79 99.23Q26.82 99.37 26.83 99.45L26.85 99.51L26.83 99.58Q26.75 99.71 26.63 99.76Q26.61 99.77 26.58 99.78Q26.43 99.83 26.28 99.87Q26.12 99.9 25.98 99.96Q25.96 99.97 25.94 99.98Q25.83 100.04 25.76 100.18Q25.76 100.2 25.76 100.22L25.76 100.28Q25.76 100.38 25.77 100.42Q25.79 100.47 25.89 100.51Q26.03 100.51 26.38 100.52Q26.74 100.53 27.14 100.55Q27.54 100.56 27.89 100.57Q28.24 100.58 28.38 100.58L28.74 100.58Q28.87 100.58 29.01 100.57Q29.15 100.56 29.26 100.52Q29.36 100.48 29.43 100.41Q29.44 100.4 29.45 100.39L29.45 100.39Q29.53 100.3 29.53 100.16Q29.53 100.12 29.51 100.08Q29.48 99.99 29.38 99.93Q29.23 99.84 29.03 99.77Q28.83 99.7 28.64 99.63Q28.45 99.56 28.38 99.45Q28.23 99.25 28.16 98.99Q28.09 98.72 28.05 98.5Q28.04 98.5 28.02 98.45Q28 98.4 27.97 98.34Q27.94 98.28 27.93 98.24Q27.91 98.19 27.91 98.18Q27.9 98.16 27.89 98.11Q27.88 98.06 27.87 98.01Q27.86 97.95 27.85 97.91Q27.84 97.86 27.84 97.84Q27.83 97.82 27.8 97.76Q27.78 97.7 27.74 97.63Q27.71 97.56 27.68 97.51Q27.65 97.45 27.64 97.43Q27.57 97.26 27.55 97.15Q27.54 97.03 27.5 96.83Q27.44 96.59 27.34 96.35Q27.23 96.12 27.16 95.88Q27.13 95.78 27.07 95.6Q27.02 95.42 26.97 95.23Q26.92 95.05 26.88 94.91Q26.84 94.77 26.83 94.74Q26.83 94.72 26.81 94.63Q26.79 94.54 26.77 94.43Q26.75 94.31 26.73 94.21Q26.71 94.12 26.71 94.09Q26.71 94.08 26.69 94.02Q26.67 93.96 26.65 93.88L26.6 93.72Q26.58 93.64 26.57 93.6Q26.55 93.55 26.51 93.4Q26.48 93.26 26.43 93.1Q26.38 92.95 26.31 92.82Q26.25 92.69 26.16 92.66Q26.14 92.66 26.12 92.66Q26.09 92.66 26.06 92.69Q26.05 92.7 26.04 92.71Q26.01 92.74 25.98 92.78Q25.95 92.83 25.92 92.87Q25.9 92.92 25.89 92.93Q25.86 92.96 25.8 93.02Q25.75 93.09 25.68 93.16L25.49 93.34Q25.48 93.35 25.43 93.38Q25.37 93.41 25.3 93.44Q25.23 93.48 25.16 93.5Q25.1 93.53 25.08 93.54Q25.04 93.56 24.97 93.66Q24.9 93.76 24.9 93.82Q24.9 93.83 24.93 93.91Q24.95 94 24.95 94.03L24.95 94.15Q24.95 94.24 24.91 94.34Q24.87 94.43 24.82 94.54Q24.76 94.64 24.71 94.72Q24.65 94.81 24.61 94.88Q24.55 95.06 24.49 95.19Q24.42 95.31 24.35 95.47Q24.33 95.5 24.28 95.6Q24.24 95.71 24.18 95.82L24.07 96.03Q24.02 96.13 24.02 96.16Q24.02 96.17 23.98 96.26Q23.95 96.35 23.92 96.45Q23.88 96.55 23.85 96.64Q23.81 96.74 23.8 96.75Q23.79 96.81 23.74 96.93Q23.69 97.06 23.66 97.09Q23.45 97.58 23.22 98.07Q22.98 98.56 22.74 99.03Q22.72 99.05 22.7 99.14Q22.68 99.22 22.68 99.24Q22.68 99.27 22.64 99.32Q22.63 99.35 22.62 99.37Q22.58 99.4 22.53 99.45Q22.49 99.51 22.43 99.56Q22.38 99.61 22.34 99.65Q22.29 99.69 22.28 99.7Q22.27 99.72 22.2 99.75Q22.13 99.78 22.04 99.81Q21.96 99.85 21.89 99.88Q21.82 99.91 21.8 99.91Q21.7 99.95 21.59 100.01Q21.55 100.02 21.53 100.05Q21.48 100.1 21.48 100.22L21.48 100.24Q21.48 100.26 21.48 100.32Q21.48 100.38 21.5 100.43Q21.52 100.49 21.55 100.53Q21.55 100.53 21.55 100.53Q21.58 100.56 21.6 100.57Q21.62 100.58 21.64 100.58L21.7 100.58Q21.71 100.58 21.79 100.57Q21.86 100.56 21.95 100.55Q22.04 100.53 22.11 100.52Q22.18 100.51 22.2 100.51ZM24.31 97.17Q24.29 97.13 24.29 97.07L24.29 96.97Q24.31 96.89 24.38 96.68Q24.45 96.48 24.52 96.26Q24.59 96.03 24.65 95.83Q24.72 95.63 24.75 95.55Q24.78 95.47 24.81 95.34Q24.83 95.2 24.87 95.07Q24.91 94.94 24.98 94.84Q25.01 94.79 25.06 94.76Q25.1 94.74 25.16 94.74Q25.17 94.74 25.19 94.75Q25.23 94.75 25.27 94.79Q25.33 94.83 25.37 94.9Q25.41 94.96 25.44 95.04Q25.47 95.11 25.49 95.17Q25.63 95.55 25.79 95.95Q25.95 96.35 26.03 96.75L26.03 96.9Q26.03 97.11 25.93 97.2Q25.9 97.23 25.86 97.24Q25.69 97.32 25.47 97.32Q25.37 97.32 25.27 97.31Q25.18 97.3 25.08 97.3L24.61 97.3Q24.52 97.3 24.4 97.25Q24.34 97.22 24.31 97.17Z" fill="#151618" fill-opacity="1.000000" fill-rule="evenodd"/>
</svg>
