<svg width="22.000000" height="16.000000" viewBox="0 0 22 16" fill="none" xmlns="http://www.w3.org/2000/svg" xmlns:xlink="http://www.w3.org/1999/xlink">
	<desc>
			Created with Pixso.
	</desc>
	<defs/>
	<path id="icon" d="M19 0C20.65 0 22 1.34 22 3L22 13C22 14.65 20.65 16 19 16L3 16C1.34 16 0 14.65 0 13L0 3C0 1.34 1.34 0 3 0L19 0ZM18.25 2L3.74 2L10.38 7.23C10.74 7.52 11.25 7.52 11.61 7.23L18.25 2ZM2 3.16L2 13C2 13.55 2.44 14 3 14L19 14C19.55 14 20 13.55 20 13L20 3.16L12.85 8.8C11.76 9.66 10.23 9.66 9.14 8.8L2 3.16Z" fill="#151618" fill-opacity="1.000000" fill-rule="evenodd"/>
</svg>
