<svg width="26.000000" height="20.000000" viewBox="0 0 26 20" fill="none" xmlns="http://www.w3.org/2000/svg" xmlns:xlink="http://www.w3.org/1999/xlink">
	<desc>
			Created with Pixso.
	</desc>
	<defs>
		<clipPath id="clip18_441">
			<rect id="logos:mastercard" width="26.000000" height="20.000000" fill="white" fill-opacity="0"/>
		</clipPath>
	</defs>
	<rect id="logos:mastercard" width="26.000000" height="20.000000" fill="#FFFFFF" fill-opacity="0"/>
	<g clip-path="url(#clip18_441)">
		<path id="Vector" d="M4.72 19.9L4.72 18.57C4.72 18.06 4.41 17.73 3.87 17.73C3.61 17.73 3.32 17.82 3.12 18.11C2.96 17.87 2.74 17.73 2.4 17.73C2.18 17.73 1.96 17.8 1.78 18.04L1.78 17.78L1.31 17.78L1.31 19.9L1.78 19.9L1.78 18.73C1.78 18.35 1.98 18.17 2.29 18.17C2.6 18.17 2.76 18.37 2.76 18.73L2.76 19.9L3.23 19.9L3.23 18.73C3.23 18.35 3.45 18.17 3.74 18.17C4.05 18.17 4.21 18.37 4.21 18.73L4.21 19.9L4.72 19.9ZM11.66 17.78L10.9 17.78L10.9 17.14L10.43 17.14L10.43 17.78L10.01 17.78L10.01 18.2L10.43 18.2L10.43 19.17C10.43 19.65 10.63 19.94 11.17 19.94C11.37 19.94 11.59 19.87 11.74 19.79L11.61 19.39C11.48 19.48 11.32 19.5 11.21 19.5C10.99 19.5 10.9 19.37 10.9 19.15L10.9 18.2L11.66 18.2L11.66 17.78ZM15.62 17.73C15.36 17.73 15.18 17.87 15.07 18.04L15.07 17.78L14.6 17.78L14.6 19.9L15.07 19.9L15.07 18.7C15.07 18.35 15.22 18.15 15.51 18.15C15.6 18.15 15.71 18.17 15.8 18.2L15.94 17.76C15.85 17.73 15.71 17.73 15.62 17.73L15.62 17.73ZM9.63 17.95C9.4 17.8 9.09 17.73 8.76 17.73C8.22 17.73 7.87 18 7.87 18.42C7.87 18.77 8.13 18.97 8.6 19.04L8.82 19.06C9.07 19.1 9.2 19.17 9.2 19.28C9.2 19.43 9.02 19.54 8.71 19.54C8.4 19.54 8.16 19.43 8 19.32L7.78 19.68C8.02 19.85 8.36 19.94 8.69 19.94C9.31 19.94 9.67 19.65 9.67 19.26C9.67 18.88 9.38 18.68 8.94 18.62L8.71 18.59C8.51 18.57 8.36 18.53 8.36 18.4C8.36 18.24 8.51 18.15 8.76 18.15C9.02 18.15 9.29 18.26 9.43 18.33L9.63 17.95ZM22.07 17.73C21.8 17.73 21.62 17.87 21.51 18.04L21.51 17.78L21.04 17.78L21.04 19.9L21.51 19.9L21.51 18.7C21.51 18.35 21.67 18.15 21.96 18.15C22.05 18.15 22.16 18.17 22.25 18.2L22.38 17.76C22.29 17.73 22.16 17.73 22.07 17.73ZM16.09 18.84C16.09 19.48 16.54 19.94 17.23 19.94C17.54 19.94 17.76 19.87 17.99 19.7L17.76 19.32C17.59 19.45 17.41 19.52 17.21 19.52C16.83 19.52 16.56 19.26 16.56 18.84C16.56 18.44 16.83 18.17 17.21 18.15C17.41 18.15 17.59 18.22 17.76 18.35L17.99 17.98C17.76 17.8 17.54 17.73 17.23 17.73C16.54 17.73 16.09 18.2 16.09 18.84ZM20.42 18.84L20.42 17.78L19.95 17.78L19.95 18.04C19.79 17.84 19.57 17.73 19.28 17.73C18.68 17.73 18.21 18.2 18.21 18.84C18.21 19.48 18.68 19.94 19.28 19.94C19.59 19.94 19.82 19.83 19.95 19.63L19.95 19.9L20.42 19.9L20.42 18.84ZM18.7 18.84C18.7 18.46 18.95 18.15 19.35 18.15C19.73 18.15 19.99 18.44 19.99 18.84C19.99 19.21 19.73 19.52 19.35 19.52C18.95 19.5 18.7 19.21 18.7 18.84ZM13.1 17.73C12.48 17.73 12.03 18.17 12.03 18.84C12.03 19.5 12.48 19.94 13.13 19.94C13.44 19.94 13.75 19.85 14 19.65L13.77 19.32C13.6 19.45 13.37 19.54 13.15 19.54C12.86 19.54 12.57 19.41 12.5 19.04L14.09 19.04L14.09 18.86C14.11 18.17 13.71 17.73 13.1 17.73ZM13.1 18.13C13.39 18.13 13.6 18.31 13.64 18.64L12.53 18.64C12.57 18.35 12.77 18.13 13.1 18.13ZM24.72 18.84L24.72 16.94L24.25 16.94L24.25 18.04C24.1 17.84 23.87 17.73 23.58 17.73C22.98 17.73 22.51 18.2 22.51 18.84C22.51 19.48 22.98 19.94 23.58 19.94C23.9 19.94 24.12 19.83 24.25 19.63L24.25 19.9L24.72 19.9L24.72 18.84ZM23 18.84C23 18.46 23.25 18.15 23.65 18.15C24.03 18.15 24.3 18.44 24.3 18.84C24.3 19.21 24.03 19.52 23.65 19.52C23.25 19.5 23 19.21 23 18.84ZM7.35 18.84L7.35 17.78L6.88 17.78L6.88 18.04C6.73 17.84 6.51 17.73 6.22 17.73C5.61 17.73 5.15 18.2 5.15 18.84C5.15 19.48 5.61 19.94 6.22 19.94C6.53 19.94 6.75 19.83 6.88 19.63L6.88 19.9L7.35 19.9L7.35 18.84ZM5.61 18.84C5.61 18.46 5.86 18.15 6.26 18.15C6.64 18.15 6.91 18.44 6.91 18.84C6.91 19.21 6.64 19.52 6.26 19.52C5.86 19.5 5.61 19.21 5.61 18.84Z" fill="#151618" fill-opacity="1.000000" fill-rule="nonzero"/>
		<path id="Vector" d="M9.47 1.69L16.49 1.69L16.49 14.18L9.47 14.18L9.47 1.69Z" fill="#FF5F00" fill-opacity="1.000000" fill-rule="nonzero"/>
		<path id="Vector" d="M9.92 7.94C9.92 5.4 11.12 3.15 12.97 1.69C11.61 0.63 9.89 0 8.02 0C3.58 0 0 3.55 0 7.94C0 12.33 3.58 15.88 8.02 15.88C9.89 15.88 11.61 15.24 12.97 14.18C11.12 12.75 9.92 10.47 9.92 7.94Z" fill="#EB001B" fill-opacity="1.000000" fill-rule="nonzero"/>
		<path id="Vector" d="M25.97 7.94C25.97 12.33 22.38 15.88 17.94 15.88C16.07 15.88 14.35 15.24 12.99 14.18C14.87 12.73 16.05 10.47 16.05 7.94C16.05 5.4 14.84 3.15 12.99 1.69C14.35 0.63 16.07 0 17.94 0C22.38 0 25.97 3.57 25.97 7.94Z" fill="#F79E1B" fill-opacity="1.000000" fill-rule="nonzero"/>
	</g>
</svg>
