<svg width="29.000000" height="12.000000" viewBox="0 0 29 12" fill="none" xmlns="http://www.w3.org/2000/svg" xmlns:xlink="http://www.w3.org/1999/xlink">
	<desc>
			Created with Pixso.
	</desc>
	<defs>
		<clipPath id="clip18_448">
			<rect id="logos:google-pay" width="29.000000" height="12.000000" fill="white" fill-opacity="0"/>
		</clipPath>
	</defs>
	<rect id="logos:google-pay" width="29.000000" height="12.000000" fill="#FFFFFF" fill-opacity="0"/>
	<g clip-path="url(#clip18_448)">
		<path id="Vector" d="M20.55 3.23C21.35 3.23 21.96 3.46 22.44 3.91C22.91 4.36 23.12 4.96 23.12 5.72L23.12 9.33L22.11 9.33L22.11 8.5L22.07 8.5C21.64 9.18 21.02 9.52 20.3 9.52C19.68 9.52 19.14 9.33 18.7 8.95C18.3 8.58 18.05 8.05 18.05 7.49C18.05 6.88 18.27 6.39 18.7 6.02C19.14 5.64 19.75 5.49 20.48 5.49C21.13 5.49 21.64 5.6 22.04 5.87L22.04 5.6C22.04 5.25 21.91 4.9 21.66 4.67L21.6 4.63C21.31 4.36 20.95 4.21 20.55 4.21C19.94 4.21 19.46 4.48 19.14 5L18.2 4.4C18.78 3.61 19.54 3.23 20.55 3.23ZM15.44 0.67C16.09 0.67 16.71 0.91 17.2 1.35L17.29 1.43C17.8 1.88 18.05 2.56 18.05 3.27C18.05 3.99 17.8 4.63 17.29 5.12C16.78 5.6 16.17 5.87 15.44 5.87L13.7 5.83L13.7 9.33L12.62 9.33L12.62 0.67L15.44 0.67ZM20.7 6.39C20.26 6.39 19.9 6.51 19.61 6.73C19.32 6.92 19.17 7.19 19.17 7.52C19.17 7.83 19.32 8.09 19.54 8.24C19.79 8.43 20.08 8.54 20.37 8.54C20.78 8.54 21.18 8.38 21.5 8.08L21.57 8.01C21.93 7.67 22.11 7.26 22.11 6.81C21.78 6.55 21.31 6.39 20.7 6.39L20.7 6.39ZM15.51 1.73L13.7 1.73L13.7 4.74L15.51 4.74C15.91 4.74 16.31 4.59 16.57 4.29C17.14 3.72 17.14 2.78 16.6 2.22L16.57 2.18C16.28 1.88 15.91 1.69 15.51 1.73L15.51 1.73ZM29 3.42L25.41 11.96L24.32 11.96L25.66 8.99L23.31 3.46L24.47 3.46L26.17 7.71L26.2 7.71L27.87 3.46L29 3.46L29 3.42Z" fill="#5F6368" fill-opacity="1.000000" fill-rule="nonzero"/>
		<path id="Vector" d="M9.39 5.08C9.39 4.74 9.35 4.4 9.32 4.06L4.79 4.06L4.79 5.98L7.36 5.98C7.25 6.58 6.93 7.15 6.42 7.49L6.42 8.73L7.98 8.73C8.88 7.86 9.39 6.58 9.39 5.08L9.39 5.08Z" fill="#4285F4" fill-opacity="1.000000" fill-rule="nonzero"/>
		<path id="Vector" d="M4.79 9.93C6.09 9.93 7.18 9.48 7.98 8.73L6.42 7.49C5.98 7.79 5.44 7.98 4.79 7.98C3.56 7.98 2.47 7.11 2.11 5.91L0.51 5.91L0.51 7.19C1.34 8.88 2.98 9.93 4.79 9.93Z" fill="#34A853" fill-opacity="1.000000" fill-rule="nonzero"/>
		<path id="Vector" d="M2.11 5.91C1.89 5.3 1.89 4.63 2.11 3.99L2.11 2.71L0.51 2.71C-0.18 4.1 -0.18 5.76 0.51 7.19L2.11 5.91Z" fill="#FBBC04" fill-opacity="1.000000" fill-rule="nonzero"/>
		<path id="Vector" d="M4.79 1.95C5.48 1.95 6.13 2.22 6.64 2.71L8.01 1.28C7.14 0.45 5.98 -0.04 4.82 0C3.01 0 1.34 1.05 0.55 2.74L2.14 4.02C2.47 2.82 3.56 1.95 4.79 1.95Z" fill="#EA4335" fill-opacity="1.000000" fill-rule="nonzero"/>
	</g>
</svg>
