<svg width="10.000000" height="12.000000" viewBox="0 0 10 12" fill="none" xmlns="http://www.w3.org/2000/svg" xmlns:xlink="http://www.w3.org/1999/xlink">
	<desc>
			Created with Pixso.
	</desc>
	<defs>
		<clipPath id="clip18_453">
			<rect id="logos:paypal" width="10.000000" height="12.000000" fill="white" fill-opacity="0"/>
		</clipPath>
	</defs>
	<rect id="logos:paypal" width="10.000000" height="12.000000" fill="#FFFFFF" fill-opacity="0"/>
	<g clip-path="url(#clip18_453)">
		<path id="Vector" d="M8.48 0.93C7.93 0.3 6.95 0.03 5.69 0.03L2.04 0.03C1.91 0.03 1.79 0.07 1.7 0.15C1.6 0.24 1.54 0.35 1.52 0.48L0 10.29C-0.03 10.48 0.12 10.66 0.31 10.66L2.57 10.66L3.13 7L3.11 7.12C3.15 6.86 3.37 6.67 3.63 6.67L4.7 6.67C6.81 6.67 8.45 5.8 8.94 3.28C8.95 3.21 8.96 3.14 8.97 3.07C9.12 2.14 8.97 1.5 8.48 0.93Z" fill="#27346A" fill-opacity="1.000000" fill-rule="nonzero"/>
		<path id="Vector" d="M3.99 2.73C4.06 2.7 4.12 2.68 4.19 2.68L7.06 2.68C7.4 2.68 7.71 2.71 8 2.75C8.08 2.77 8.16 2.78 8.24 2.8C8.36 2.83 8.47 2.86 8.58 2.89C8.72 2.94 8.85 3 8.97 3.07C9.12 2.13 8.97 1.5 8.48 0.93C7.93 0.3 6.95 0.03 5.69 0.03L2.04 0.03C1.78 0.03 1.56 0.22 1.52 0.48L0 10.29C-0.03 10.48 0.12 10.66 0.31 10.66L2.57 10.66L3.74 3.08C3.75 3 3.78 2.93 3.83 2.87C3.87 2.81 3.93 2.76 3.99 2.73Z" fill="#27346A" fill-opacity="1.000000" fill-rule="nonzero"/>
		<path id="Vector" d="M8.94 3.28C8.45 5.8 6.81 6.67 4.7 6.67L3.63 6.67C3.37 6.67 3.15 6.86 3.11 7.12L2.41 11.66C2.38 11.83 2.51 11.98 2.68 11.98L4.58 11.98C4.69 11.98 4.8 11.95 4.88 11.87C4.96 11.8 5.02 11.7 5.03 11.59L5.05 11.49L5.41 9.18L5.43 9.06C5.45 8.95 5.51 8.85 5.59 8.78C5.67 8.7 5.78 8.66 5.89 8.66L6.17 8.66C8.01 8.66 9.45 7.9 9.87 5.7C10.05 4.78 9.96 4.01 9.49 3.47C9.35 3.31 9.18 3.18 8.97 3.07C8.96 3.14 8.95 3.21 8.94 3.28Z" fill="#2790C3" fill-opacity="1.000000" fill-rule="nonzero"/>
		<path id="Vector" d="M8.47 2.86C8.39 2.84 8.32 2.82 8.24 2.8C8.16 2.78 8.08 2.77 8 2.76C7.71 2.71 7.4 2.68 7.06 2.68L4.19 2.68C4.12 2.68 4.06 2.7 4 2.73C3.93 2.76 3.87 2.81 3.83 2.87C3.78 2.93 3.75 3 3.74 3.08L3.13 7L3.11 7.12C3.15 6.86 3.37 6.67 3.63 6.67L4.7 6.67C6.81 6.67 8.45 5.8 8.94 3.28C8.95 3.21 8.96 3.14 8.97 3.07C8.85 3 8.72 2.94 8.58 2.9C8.54 2.88 8.51 2.87 8.47 2.86L8.47 2.86Z" fill="#1F264F" fill-opacity="1.000000" fill-rule="nonzero"/>
	</g>
</svg>
