<svg width="31.000000" height="10.000000" viewBox="0 0 31 10" fill="none" xmlns="http://www.w3.org/2000/svg" xmlns:xlink="http://www.w3.org/1999/xlink">
	<desc>
			Created with Pixso.
	</desc>
	<defs>
		<linearGradient x1="1425.189941" y1="30.059174" x2="1701.182373" y2="-990.000916" id="paint_linear_18_442_0" gradientUnits="userSpaceOnUse">
			<stop stop-color="#222357"/>
			<stop offset="1.000000" stop-color="#254AA5"/>
		</linearGradient>
	</defs>
	<path id="Vector" d="M16.03 3.19C16.01 4.58 17.27 5.36 18.22 5.82C19.2 6.3 19.52 6.6 19.52 7.03C19.51 7.68 18.74 7.96 18.02 7.97C16.76 7.99 16.03 7.63 15.45 7.36L14.99 9.48C15.58 9.75 16.66 9.98 17.78 10C20.41 10 22.13 8.7 22.14 6.69C22.15 4.13 18.61 3.99 18.63 2.85C18.64 2.51 18.97 2.14 19.69 2.04C20.05 2 21.04 1.96 22.16 2.47L22.6 0.42C22 0.21 21.22 0 20.26 0C17.78 0 16.04 1.31 16.03 3.19ZM26.83 0.17C26.35 0.17 25.95 0.45 25.77 0.88L22.01 9.84L24.64 9.84L25.16 8.4L28.37 8.4L28.68 9.84L31 9.84L28.97 0.17L26.83 0.17ZM27.2 2.78L27.96 6.42L25.88 6.42L27.2 2.78ZM12.84 0.17L10.77 9.84L13.27 9.84L15.34 0.17L12.84 0.17ZM9.13 0.17L6.53 6.76L5.47 1.16C5.35 0.53 4.86 0.17 4.32 0.17L0.05 0.17L0 0.45C0.87 0.64 1.86 0.95 2.47 1.28C2.84 1.48 2.94 1.65 3.06 2.13L5.06 9.84L7.71 9.84L11.76 0.17L9.13 0.17Z" fill="url(#paint_linear_18_442_0)" fill-opacity="1.000000" fill-rule="nonzero"/>
</svg>
