<svg width="20.805176" height="20.805176" viewBox="0 0 20.8052 20.8052" fill="none" xmlns="http://www.w3.org/2000/svg" xmlns:xlink="http://www.w3.org/1999/xlink">
	<desc>
			Created with Pixso.
	</desc>
	<defs/>
	<path id="icon" d="M15.66 20.72C13.64 20.21 9.51 18.79 5.76 15.04C2.01 11.29 0.58 7.15 0.08 5.13C-0.22 3.97 0.31 2.85 1.2 2.22L3.53 0.55C4.89 -0.42 6.78 -0.09 7.74 1.29L9.2 3.4C9.82 4.3 9.61 5.54 8.72 6.17L7.55 7.01C7.73 7.68 8.28 9.07 10 10.79C11.72 12.52 13.11 13.07 13.79 13.24L14.62 12.08C15.26 11.19 16.49 10.97 17.39 11.59L19.51 13.06C20.88 14.01 21.21 15.91 20.24 17.27L18.58 19.6C17.94 20.49 16.82 21.01 15.66 20.72ZM7.17 13.62C10.58 17.03 14.34 18.33 16.15 18.78C16.41 18.85 16.73 18.74 16.95 18.44L18.61 16.11C18.94 15.65 18.83 15.02 18.37 14.7L16.25 13.24L15.36 14.49C14.99 15.01 14.31 15.41 13.52 15.24C12.54 15.02 10.72 14.34 8.59 12.21C6.45 10.07 5.77 8.25 5.56 7.27C5.39 6.48 5.79 5.81 6.3 5.44L7.56 4.54L6.09 2.43C5.77 1.97 5.14 1.86 4.69 2.18L2.36 3.84C2.05 4.06 1.95 4.38 2.02 4.65C2.47 6.45 3.76 10.21 7.17 13.62Z" fill="#151618" fill-opacity="1.000000" fill-rule="evenodd"/>
</svg>
