<svg width="60.000000" height="60.000000" viewBox="0 0 60 60" fill="none" xmlns="http://www.w3.org/2000/svg" xmlns:xlink="http://www.w3.org/1999/xlink">
	<desc>
			Created with Pixso.
	</desc>
	<defs/>
	<path id="Vector" d="M25.55 0.15L25.54 0.13L25.5 0.16C11.17 1.68 0 13.82 0 28.58C0 35.19 2.24 41.28 6 46.12L6 46.13L6.01 46.13C8.38 49.2 11.36 51.75 14.76 53.62C18.16 55.5 21.9 56.66 25.77 57.04C25.9 55.68 26.23 54.25 26.73 52.82C20.57 52.36 14.82 49.56 10.65 44.99C10.81 44.31 10.88 43.51 10.93 42.82L10.96 42.48C11.01 41.85 11.06 41.25 11.14 40.63C11.34 39.13 11.68 38.12 12.22 37.55C12.9 36.82 13.6 36.69 15.07 36.43L15.34 36.39C16.09 36.25 17.1 36.05 18.07 35.52C19.11 34.96 19.99 34.09 20.65 32.82C21.31 31.54 21.26 30.22 21.08 29.18C20.91 28.34 20.69 27.52 20.42 26.71C20.38 26.57 20.33 26.43 20.29 26.29C19.71 24.38 19.63 23.45 20.12 22.71C20.64 21.91 21.36 21.73 23.24 21.24L23.48 21.18C25.38 20.69 27.96 19.87 29.45 16.69C31.06 13.24 30.15 9.35 29.16 6.72C28.85 5.89 28.49 5.08 28.1 4.29C28.25 4.28 28.4 4.28 28.55 4.28C33.13 4.28 37.62 5.58 41.5 8.03C40.95 8.76 40.22 9.72 39.4 10.74C37.6 12.99 35.57 15.31 34.19 16.35C33.55 16.81 33.07 17.46 32.8 18.2C32.57 18.87 32.52 19.6 32.64 20.3C32.84 21.49 33.47 22.6 34.03 23.46C34.5 24.17 35.05 24.88 35.51 25.49L35.82 25.9C36.09 26.26 36.31 26.55 36.47 26.81C36.55 26.93 36.61 27.03 36.65 27.1C36.69 27.17 36.71 27.21 36.71 27.21C36.82 27.53 36.95 28.04 37.09 28.76L37.15 29.06C38.42 28.5 39.79 28.06 41.26 27.79C41.14 27.09 40.96 26.4 40.73 25.73C40.41 24.88 39.73 23.97 39.24 23.32C39.12 23.16 38.99 22.99 38.87 22.83C38.43 22.27 38.01 21.69 37.62 21.1C37.17 20.43 36.96 19.96 36.89 19.68C38.74 18.24 41.02 15.57 42.74 13.43C43.59 12.37 44.34 11.38 44.9 10.63C49.61 14.92 52.44 20.89 52.78 27.26C54.44 27.39 55.87 27.61 57.09 27.86C56.71 12.41 44.08 0 28.55 0C27.54 0 26.54 0.05 25.55 0.15ZM6.95 39.68C5.25 36.36 4.33 32.69 4.28 28.95C4.22 25.22 5.02 21.52 6.63 18.15C8.23 14.78 10.58 11.82 13.51 9.51C16.43 7.19 19.85 5.59 23.5 4.81C24.15 5.9 24.7 7.04 25.15 8.23C26.05 10.62 26.41 13.06 25.57 14.86C24.93 16.23 24.01 16.61 22.41 17.03L21.94 17.14C20.43 17.51 18.03 18.09 16.54 20.35C14.82 22.96 15.67 25.82 16.2 27.54L16.37 28.09C16.6 28.82 16.77 29.38 16.86 29.91C16.97 30.53 16.89 30.76 16.85 30.84C16.56 31.39 16.28 31.62 16.03 31.75C15.71 31.93 15.3 32.04 14.59 32.16C14.48 32.19 14.35 32.21 14.22 32.23C12.9 32.44 10.8 32.79 9.09 34.63C7.7 36.11 7.19 38.09 6.95 39.68ZM28.57 57.76C28.74 55 29.98 51.64 32.09 48.46C32.77 47.3 33.61 46.13 34.62 44.98C38.01 41.12 42.48 38.38 47.46 37.12C47.83 37.03 48.14 36.79 48.34 36.47C48.53 36.14 48.59 35.75 48.5 35.39C48.41 35.02 48.17 34.7 47.85 34.51C47.52 34.31 47.13 34.25 46.76 34.34C41.23 35.75 36.24 38.8 32.47 43.1C31.71 43.97 31.02 44.87 30.4 45.79C30.12 44.85 29.98 43.86 29.98 42.88C29.98 40.26 31.31 37.41 33.42 35.15C35.83 32.58 39.06 30.93 42.55 30.48C50.54 29.42 55.5 30.31 58.43 31.13C58.83 31.24 59.18 31.46 59.45 31.77C59.73 32.08 59.91 32.46 59.97 32.86C60.03 33.27 59.98 33.68 59.81 34.06C59.65 34.44 59.38 34.76 59.03 34.98C58.87 35.09 58.61 35.35 58.29 35.95C57.92 36.71 57.61 37.5 57.38 38.31C57.13 39.12 56.89 40 56.64 40.96L56.47 41.56C56.15 42.74 55.8 43.99 55.38 45.24C54.55 47.7 53.37 50.33 51.39 52.35C49.34 54.45 46.55 55.75 42.83 55.75C39.03 55.75 36.38 54.21 34.69 52.44C33.53 54.56 32.94 56.55 32.84 58.02C32.8 58.58 32.54 59.1 32.11 59.47C31.69 59.84 31.14 60.03 30.58 59.99C30.02 59.96 29.49 59.7 29.12 59.29C28.74 58.87 28.55 58.32 28.57 57.76Z" fill="#754E29" fill-opacity="1.000000" fill-rule="nonzero"/>
</svg>
