<svg width="60.000000" height="60.000000" viewBox="0 0 60 60" fill="none" xmlns="http://www.w3.org/2000/svg" xmlns:xlink="http://www.w3.org/1999/xlink">
	<desc>
			Created with Pixso.
	</desc>
	<defs/>
	<path id="Vector" d="M30 0C13.45 0 0 13.45 0 30L0 42.42C0 45.5 2.69 48 6 48L9 48C9.79 48 10.55 47.68 11.12 47.12C11.68 46.55 12 45.79 12 45L12 29.57C12 28.77 11.68 28.01 11.12 27.44C10.55 26.88 9.79 26.57 9 26.57L6.27 26.57C7.94 14.96 17.93 6 30 6C42.06 6 52.05 14.96 53.72 26.57L51 26.57C50.2 26.57 49.44 26.88 48.87 27.44C48.31 28.01 48 28.77 48 29.57L48 48C48 51.3 45.3 54 42 54L36 54L36 51L24 51L24 60L42 60C48.61 60 54 54.61 54 48C57.3 48 60 45.5 60 42.42L60 30C60 13.45 46.54 0 30 0Z" fill="#754E29" fill-opacity="1.000000" fill-rule="nonzero"/>
</svg>
