<svg width="64.166504" height="63.291138" viewBox="0 0 64.1665 63.2911" fill="none" xmlns="http://www.w3.org/2000/svg" xmlns:xlink="http://www.w3.org/1999/xlink">
	<desc>
			Created with Pixso.
	</desc>
	<defs/>
	<path id="Vector" d="M32.08 2.08C33.21 2.08 34.32 2.34 35.31 2.84L60.36 15.55C60.88 15.81 61.32 16.2 61.62 16.67C61.92 17.13 62.08 17.67 62.08 18.21L62.08 43.28C62.08 44.36 61.76 45.43 61.16 46.36C60.55 47.3 59.69 48.07 58.65 48.6L35.31 60.44C34.32 60.94 33.21 61.2 32.08 61.2C30.95 61.2 29.83 60.94 28.84 60.44L5.51 48.6C4.47 48.07 3.6 47.3 3 46.36C2.4 45.43 2.08 44.36 2.08 43.28L2.08 18.21C2.08 17.67 2.24 17.13 2.54 16.67C2.84 16.2 3.27 15.81 3.79 15.55L28.84 2.84C29.83 2.34 30.95 2.08 32.08 2.08Z" stroke="#754E29" stroke-opacity="1.000000" stroke-width="4.166667" stroke-linejoin="round"/>
	<path id="Vector" d="M2.08 16.42L32.08 31.64L62.08 16.42M32.08 31.64L32.08 62.08" stroke="#754E29" stroke-opacity="1.000000" stroke-width="4.166667" stroke-linejoin="round"/>
	<path id="Vector" d="M17.08 24.03L47.08 8.81M12.08 32.64L22.08 37.73" stroke="#754E29" stroke-opacity="1.000000" stroke-width="4.166667" stroke-linejoin="round" stroke-linecap="round"/>
</svg>
