<svg width="60.000000" height="60.000000" viewBox="0 0 60 60" fill="none" xmlns="http://www.w3.org/2000/svg" xmlns:xlink="http://www.w3.org/1999/xlink">
	<desc>
			Created with Pixso.
	</desc>
	<defs/>
	<path id="Vector" d="M50.88 16.48C50.88 18 50.67 19.51 50.25 20.98L55.17 20.98C57.84 20.98 60 23.1 60 25.73L60 40.46C60 44.12 58.95 47.71 56.98 50.81C55.01 53.91 52.19 56.4 48.85 58C45.51 59.59 41.78 60.22 38.09 59.82C34.4 59.42 30.9 58 27.99 55.73L24.39 59.28C24.18 59.5 23.93 59.68 23.65 59.8C23.37 59.92 23.07 59.99 22.76 59.99C22.46 60 22.15 59.94 21.87 59.83C21.59 59.72 21.33 59.55 21.11 59.34C20.9 59.12 20.73 58.87 20.61 58.59C20.5 58.31 20.44 58.01 20.44 57.71C20.45 57.41 20.52 57.11 20.64 56.83C20.77 56.56 20.95 56.31 21.17 56.1L24.77 52.55C23.56 51.05 22.58 49.38 21.87 47.59C19.22 48.12 16.48 48.07 13.86 47.43C11.23 46.79 8.79 45.59 6.69 43.9C4.6 42.21 2.91 40.09 1.75 37.68C0.6 35.27 -0.01 32.63 0 29.97L0 16.52C0 14.02 2.05 11.98 4.59 11.98L18.09 11.98C19.09 8.53 21.19 5.49 24.09 3.33C27 1.17 30.53 0 34.17 0L46.51 0C48.92 0 50.88 1.93 50.88 4.31L50.88 16.48ZM22.69 12.53C25.22 13.16 27.57 14.32 29.6 15.92C31.64 17.52 33.3 19.53 34.48 21.82C36.35 21.26 38.29 20.97 40.25 20.98L45.44 20.98C46.03 19.55 46.33 18.02 46.32 16.48L46.32 4.49L34.17 4.49C31.65 4.49 29.19 5.26 27.13 6.7C25.08 8.15 23.53 10.18 22.69 12.53ZM31.24 52.52C33.5 54.17 36.18 55.16 38.98 55.39C41.78 55.62 44.59 55.08 47.1 53.83C49.61 52.58 51.71 50.67 53.19 48.31C54.66 45.95 55.44 43.23 55.44 40.46L55.44 25.73C55.44 25.7 55.43 25.66 55.42 25.63C55.41 25.6 55.39 25.57 55.36 25.55C55.34 25.52 55.31 25.5 55.28 25.49C55.25 25.48 55.21 25.47 55.18 25.47L40.25 25.47C37.44 25.47 34.68 26.24 32.29 27.69C29.9 29.14 27.96 31.22 26.69 33.7C25.42 36.17 24.88 38.94 25.11 41.71C25.35 44.47 26.35 47.11 28.02 49.34L40.92 36.62C41.13 36.4 41.38 36.22 41.66 36.1C41.94 35.98 42.24 35.91 42.54 35.91C42.85 35.9 43.15 35.96 43.44 36.07C43.72 36.18 43.98 36.35 44.19 36.56C44.41 36.78 44.58 37.03 44.7 37.31C44.81 37.59 44.87 37.89 44.86 38.19C44.86 38.49 44.79 38.79 44.66 39.07C44.54 39.34 44.36 39.59 44.14 39.8L31.24 52.52ZM20.5 40.46C20.5 38.68 20.74 36.96 21.19 35.33L12.82 27.06C12.59 26.85 12.41 26.61 12.29 26.33C12.16 26.05 12.1 25.76 12.09 25.45C12.09 25.15 12.14 24.85 12.26 24.57C12.37 24.29 12.54 24.04 12.76 23.83C12.97 23.61 13.23 23.44 13.52 23.33C13.8 23.22 14.1 23.16 14.41 23.17C14.71 23.17 15.02 23.24 15.3 23.36C15.58 23.48 15.83 23.66 16.04 23.88L23.08 30.83C24.8 27.84 27.29 25.36 30.29 23.63C29.13 21.47 27.39 19.66 25.26 18.4C23.14 17.14 20.7 16.48 18.22 16.48L4.58 16.48L4.56 16.49C4.56 16.5 4.56 16.5 4.56 16.51L4.55 16.52L4.55 29.97C4.55 31.95 4.99 33.9 5.84 35.69C6.69 37.48 7.93 39.07 9.48 40.33C11.02 41.6 12.82 42.52 14.76 43.02C16.7 43.52 18.73 43.59 20.7 43.23C20.57 42.31 20.5 41.39 20.5 40.46Z" fill="#754E29" fill-opacity="1.000000" fill-rule="nonzero"/>
</svg>
