<svg width="22.000000" height="22.000000" viewBox="0 0 22 22" fill="none" xmlns="http://www.w3.org/2000/svg" xmlns:xlink="http://www.w3.org/1999/xlink">
	<desc>
			Created with Pixso.
	</desc>
	<defs/>
	<rect width="22.000000" height="22.000000" fill="#FFFFFF" fill-opacity="0"/>
	<path d="M16.03 14.62C17.27 13.08 18 11.13 18 9C18 4.03 13.97 0 9 0C4.03 0 0 4.03 0 9C0 13.97 4.03 18 9 18C11.13 18 13.08 17.27 14.62 16.03L20.29 21.7C20.68 22.09 21.31 22.09 21.7 21.7C22.09 21.31 22.09 20.68 21.7 20.29L16.03 14.62ZM9 16.01C5.13 16.01 1.99 12.87 1.99 9C1.99 5.13 5.13 1.99 9 1.99C12.87 1.99 16.01 5.13 16.01 9C16.01 12.87 12.87 16.01 9 16.01Z" fill="#151618" fill-opacity="1.000000" fill-rule="evenodd"/>
</svg>
