<svg width="22.000000" height="18.000000" viewBox="0 0 22 18" fill="none" xmlns="http://www.w3.org/2000/svg" xmlns:xlink="http://www.w3.org/1999/xlink">
	<desc>
			Created with Pixso.
	</desc>
	<defs/>
	<rect id="icon" width="22.000069" height="18.000000" fill="#FFFFFF" fill-opacity="0"/>
	<path id="icon" d="M18.78 1.2C19.13 1.12 19.37 1.04 19.57 0.96C19.85 0.84 20.08 0.7 20.44 0.47C20.75 0.28 21.14 0.26 21.47 0.43C21.79 0.6 22 0.92 22 1.28C22 2.32 21.86 3.17 21.55 3.93C21.29 4.56 20.92 5.07 20.48 5.54C20.29 8.78 19.32 11.33 17.83 13.26C16.29 15.26 14.23 16.54 12.07 17.26C9.91 17.97 7.63 18.13 5.59 17.89C3.56 17.65 1.69 17 0.38 16.02C0.02 15.75 -0.1 15.29 0.07 14.88C0.25 14.48 0.69 14.24 1.14 14.31C2.42 14.48 3.66 14.2 4.68 13.8C4.48 13.69 4.29 13.58 4.11 13.46C3.19 12.84 2.44 12 2.1 11.35C1.96 11.08 1.96 10.77 2.1 10.5C2.17 10.36 2.27 10.24 2.4 10.15C1.04 9.07 0.5 7.58 0.5 6.58C0.5 6.28 0.64 6 0.88 5.82C0.98 5.74 1.1 5.69 1.22 5.65C1.12 5.37 1.04 5.08 0.98 4.8C0.71 3.56 0.74 2.16 1.03 1.04C1.12 0.66 1.45 0.38 1.86 0.32C2.26 0.27 2.66 0.45 2.86 0.79C3.94 2.6 5.93 3.7 7.78 4.35C8.65 4.66 9.45 4.85 10.05 4.97C10.18 3.79 10.53 2.82 11.05 2.05C11.74 1.04 12.7 0.43 13.74 0.16C15.52 -0.3 17.5 0.23 18.78 1.2ZM9.74 6.88C9.06 6.75 8.12 6.52 7.09 6.16C5.73 5.68 4.16 4.94 2.84 3.78C2.86 3.99 2.89 4.2 2.94 4.41C3.16 5.44 3.57 6.02 3.94 6.2C4.4 6.42 4.61 6.94 4.43 7.4C4.19 8.02 3.56 8.07 2.99 7.94C3.45 8.6 4.28 9.27 5.66 9.49C6.14 9.56 6.49 9.96 6.5 10.42C6.5 10.89 6.16 11.29 5.69 11.38L4.82 11.55C4.95 11.66 5.1 11.77 5.25 11.88C5.95 12.34 6.65 12.54 7.25 12.4C7.7 12.29 8.18 12.49 8.39 12.89C8.6 13.3 8.49 13.78 8.14 14.07C7.49 14.59 6.74 15 5.99 15.35C5.63 15.51 5.24 15.67 4.81 15.81C5.14 15.88 5.48 15.93 5.84 15.98C7.61 16.19 9.58 16.04 11.42 15.43C13.26 14.82 14.95 13.75 16.22 12.11C17.49 10.46 18.38 8.19 18.5 5.1C18.51 4.86 18.61 4.62 18.79 4.45C19.24 4.02 19.61 3.52 19.79 2.93C19.47 3.03 19.11 3.11 18.68 3.19C18.36 3.25 18.02 3.15 17.79 2.92C17.02 2.19 15.51 1.7 14.26 2.03C13.66 2.18 13.13 2.51 12.72 3.11C12.31 3.72 12 4.66 12 6.1C12 6.37 11.88 6.63 11.67 6.81C11.17 7.25 10.33 6.99 9.74 6.88Z" fill="#0F0F0F" fill-opacity="1.000000" fill-rule="evenodd"/>
</svg>
