<svg width="24.000000" height="18.000000" viewBox="0 0 24 18" fill="none" xmlns="http://www.w3.org/2000/svg" xmlns:xlink="http://www.w3.org/1999/xlink">
	<desc>
			Created with Pixso.
	</desc>
	<defs/>
	<rect id="icon" width="24.000000" height="18.000000" fill="#FFFFFF" fill-opacity="0"/>
	<path id="icon" d="M0.95 2.06C0 3.37 0 5.25 0 9C0 12.74 0 14.62 0.95 15.93C1.26 16.36 1.63 16.73 2.06 17.04C3.37 18 5.25 18 9 18L15 18C18.74 18 20.62 18 21.93 17.04C22.36 16.73 22.73 16.36 23.04 15.93C24 14.62 24 12.74 24 9C24 5.25 24 3.37 23.04 2.06C22.73 1.63 22.36 1.26 21.93 0.95C20.62 0 18.74 0 15 0L9 0C5.25 0 3.37 0 2.06 0.95C1.63 1.26 1.26 1.63 0.95 2.06ZM15 2L9 2C7.08 2 5.8 2 4.83 2.1C3.9 2.2 3.49 2.38 3.23 2.57C2.98 2.75 2.75 2.98 2.57 3.23C2.38 3.49 2.2 3.9 2.1 4.83C2 5.8 2 7.08 2 9C2 10.91 2 12.19 2.1 13.16C2.2 14.09 2.38 14.5 2.57 14.76C2.75 15.01 2.98 15.24 3.23 15.42C3.49 15.61 3.9 15.79 4.83 15.89C5.8 15.99 7.08 16 9 16L15 16C16.91 16 18.19 15.99 19.16 15.89C20.09 15.79 20.5 15.61 20.76 15.42C21.01 15.24 21.24 15.01 21.42 14.76C21.61 14.5 21.79 14.09 21.89 13.16C21.99 12.19 22 10.91 22 9C22 7.08 21.99 5.8 21.89 4.83C21.79 3.9 21.61 3.49 21.42 3.23C21.24 2.98 21.01 2.75 20.76 2.57C20.5 2.38 20.09 2.2 19.16 2.1C18.19 2 16.91 2 15 2ZM8.49 4.13C8.8 3.95 9.18 3.95 9.49 4.13L16.49 8.13C16.8 8.3 17 8.64 17 9C17 9.35 16.8 9.69 16.49 9.86L9.49 13.86C9.18 14.04 8.8 14.04 8.49 13.86C8.18 13.68 8 13.35 8 13L8 5C8 4.64 8.18 4.31 8.49 4.13ZM10 11.27L13.98 9L10 6.72L10 11.27Z" fill="#0F0F0F" fill-opacity="1.000000" fill-rule="evenodd"/>
</svg>
